STARTFONT 2.1
FONT -FontForge-Glass TTY VT220-Medium-R-Normal--32-190-120-120-C-160-ISO10646-1
SIZE 19 120 120
FONTBOUNDINGBOX 16 32 0 -6
COMMENT "Generated by fontforge, http://fontforge.sourceforge.net"
COMMENT "Created by svo with FontForge 2.0 (http://fontforge.sf.net)"
COMMENT ""
COMMENT "Use font size 15 on Windows"
COMMENT "Use font size 20 on Mac/Linux "
STARTPROPERTIES 41
FOUNDRY "FontForge"
FAMILY_NAME "Glass TTY VT220"
WEIGHT_NAME "Medium"
SLANT "R"
SETWIDTH_NAME "Normal"
ADD_STYLE_NAME ""
PIXEL_SIZE 32
POINT_SIZE 190
RESOLUTION_X 120
RESOLUTION_Y 120
SPACING "C"
AVERAGE_WIDTH 160
CHARSET_REGISTRY "ISO10646"
CHARSET_ENCODING "1"
FONTNAME_REGISTRY ""
CHARSET_COLLECTIONS "ISO8859-5 ISO10646-1"
FONT_NAME "Glass_TTY_VT220"
FACE_NAME "VT220"
COPYRIGHT "Created by svo with FontForge 2.0 (http://fontforge.sf.net)"
FONT_VERSION "001.3"
FONT_ASCENT 26
FONT_DESCENT 6
UNDERLINE_POSITION -4
UNDERLINE_THICKNESS 1
X_HEIGHT 15
CAP_HEIGHT 21
DEFAULT_CHAR 1
RAW_ASCENT 800
RAW_DESCENT 200
NORM_SPACE 16
RELATIVE_WEIGHT 50
RELATIVE_SETWIDTH 50
SUPERSCRIPT_X 0
SUPERSCRIPT_Y 15
SUPERSCRIPT_SIZE 22
SUBSCRIPT_X 0
SUBSCRIPT_Y 4
SUBSCRIPT_SIZE 22
FIGURE_WIDTH 16
AVG_LOWERCASE_WIDTH 160
AVG_UPPERCASE_WIDTH 160
ENDPROPERTIES
CHARS 323
STARTCHAR uni0000
ENCODING 0
SWIDTH 500 0
DWIDTH 16 0
BBX 13 20 0 2
BITMAP
3FE0
0000
0000
E038
0000
0000
3C00
1C00
0000
0700
0700
0000
0300
0700
0000
0000
0000
0000
0000
0700
ENDCHAR
STARTCHAR uni0001
ENCODING 1
SWIDTH 500 0
DWIDTH 16 0
BBX 13 20 0 2
BITMAP
0700
0000
0000
1FC0
0000
0000
3FE0
0780
0000
FFF8
FFF8
0000
0F00
3FE0
0000
0000
1FC0
0000
0000
0700
ENDCHAR
STARTCHAR uni0002
ENCODING 2
SWIDTH 500 0
DWIDTH 16 0
BBX 13 20 0 2
BITMAP
E738
0000
0000
38E0
0000
0000
E738
C230
0000
38E0
38E0
0000
4330
E738
0000
0000
38E0
0000
0000
E738
ENDCHAR
STARTCHAR uni0003
ENCODING 3
SWIDTH 500 0
DWIDTH 16 0
BBX 13 27 0 -5
BITMAP
E700
0000
0000
E700
0000
0000
FF00
7E00
0000
E700
E700
0000
5F00
FFF8
0000
0000
03C0
0000
0000
03C0
0000
0000
03C0
0180
0000
0180
0180
ENDCHAR
STARTCHAR uni0004
ENCODING 4
SWIDTH 500 0
DWIDTH 16 0
BBX 13 27 0 -5
BITMAP
FF00
0000
0000
E000
0000
0000
FC00
7800
0000
E000
E000
0000
43F0
E7F8
0000
0000
0700
0000
0000
07E0
0000
0000
0700
0200
0000
0700
0700
ENDCHAR
STARTCHAR uni0005
ENCODING 5
SWIDTH 500 0
DWIDTH 16 0
BBX 13 27 0 -5
BITMAP
3F00
0000
0000
E000
0000
0000
E000
C000
0000
E000
E000
0000
0F00
3FE0
0000
0000
0738
0000
0000
07E0
0000
0000
0738
0230
0000
0738
0738
ENDCHAR
STARTCHAR uni0006
ENCODING 6
SWIDTH 500 0
DWIDTH 16 0
BBX 13 27 0 -5
BITMAP
E000
0000
0000
E000
0000
0000
E000
C000
0000
E000
E000
0000
5F00
FFF8
0000
0000
0700
0000
0000
07E0
0000
0000
0700
0200
0000
0700
0700
ENDCHAR
STARTCHAR uni0007
ENCODING 7
SWIDTH 500 0
DWIDTH 16 0
BBX 9 8 2 14
BITMAP
7F00
0000
0000
E380
0000
0000
7F00
3C00
ENDCHAR
STARTCHAR uni0008
ENCODING 8
SWIDTH 500 0
DWIDTH 16 0
BBX 13 17 0 2
BITMAP
0700
0000
0000
0700
0200
0000
FFF8
FFF8
0000
0300
0700
0000
0000
0700
0000
0000
FFF8
ENDCHAR
STARTCHAR uni0009
ENCODING 9
SWIDTH 500 0
DWIDTH 16 0
BBX 13 27 0 -5
BITMAP
E3C0
0000
0000
FBC0
0000
0000
FFC0
1E00
0000
E780
E780
0000
4380
E7C0
0000
0000
0700
0000
0000
0700
0000
0000
0700
0200
0000
07F8
07F8
ENDCHAR
STARTCHAR uni000A
ENCODING 10
SWIDTH 500 0
DWIDTH 16 0
BBX 13 27 0 -5
BITMAP
E3C0
0000
0000
E3C0
0000
0000
3F00
1E00
0000
3F00
3F00
0000
0FC0
1FF8
0000
0000
03C0
0000
0000
03C0
0000
0000
03C0
0180
0000
0180
0180
ENDCHAR
STARTCHAR uni000B
ENCODING 11
SWIDTH 500 0
DWIDTH 16 0
BBX 8 15 0 11
BITMAP
03
07
00
00
07
00
00
07
00
00
07
02
00
FF
FF
ENDCHAR
STARTCHAR uni000C
ENCODING 12
SWIDTH 500 0
DWIDTH 16 0
BBX 8 18 0 -5
BITMAP
FF
FF
00
03
07
00
00
07
00
00
07
00
00
07
02
00
07
07
ENDCHAR
STARTCHAR uni000D
ENCODING 13
SWIDTH 500 0
DWIDTH 16 0
BBX 8 18 5 -5
BITMAP
FF
FF
00
60
E0
00
00
E0
00
00
E0
00
00
E0
40
00
E0
E0
ENDCHAR
STARTCHAR uni000E
ENCODING 14
SWIDTH 500 0
DWIDTH 16 0
BBX 8 15 5 11
BITMAP
60
E0
00
00
E0
00
00
E0
00
00
E0
40
00
FF
FF
ENDCHAR
STARTCHAR uni000F
ENCODING 15
SWIDTH 500 0
DWIDTH 16 0
BBX 13 31 0 -5
BITMAP
0300
0700
0000
0000
0700
0000
0000
0700
0000
0000
0700
0200
0000
FFF8
FFF8
0000
0300
0700
0000
0000
0700
0000
0000
0700
0000
0000
0700
0200
0000
0700
0700
ENDCHAR
STARTCHAR uni0010
ENCODING 16
SWIDTH 500 0
DWIDTH 16 0
BBX 13 2 0 24
BITMAP
5F00
FFF8
ENDCHAR
STARTCHAR uni0011
ENCODING 17
SWIDTH 500 0
DWIDTH 16 0
BBX 13 1 0 18
BITMAP
FFF8
ENDCHAR
STARTCHAR uni0012
ENCODING 18
SWIDTH 500 0
DWIDTH 16 0
BBX 13 2 0 11
BITMAP
FFF8
FFF8
ENDCHAR
STARTCHAR uni0013
ENCODING 19
SWIDTH 500 0
DWIDTH 16 0
BBX 13 1 0 5
BITMAP
FFF8
ENDCHAR
STARTCHAR uni0014
ENCODING 20
SWIDTH 500 0
DWIDTH 16 0
BBX 13 2 0 -2
BITMAP
FFF8
0F90
ENDCHAR
STARTCHAR uni0015
ENCODING 21
SWIDTH 500 0
DWIDTH 16 0
BBX 8 31 5 -5
BITMAP
60
E0
00
00
E0
00
00
E0
00
00
E0
40
00
FF
FF
00
60
E0
00
00
E0
00
00
E0
00
00
E0
40
00
E0
E0
ENDCHAR
STARTCHAR uni0016
ENCODING 22
SWIDTH 500 0
DWIDTH 16 0
BBX 8 31 0 -5
BITMAP
03
07
00
00
07
00
00
07
00
00
07
02
00
FF
FF
00
03
07
00
00
07
00
00
07
00
00
07
02
00
07
07
ENDCHAR
STARTCHAR uni0017
ENCODING 23
SWIDTH 500 0
DWIDTH 16 0
BBX 13 15 0 11
BITMAP
0300
0700
0000
0000
0700
0000
0000
0700
0000
0000
0700
0200
0000
FFF8
FFF8
ENDCHAR
STARTCHAR uni0018
ENCODING 24
SWIDTH 500 0
DWIDTH 16 0
BBX 13 18 0 -5
BITMAP
FFF8
FFF8
0000
0300
0700
0000
0000
0700
0000
0000
0700
0000
0000
0700
0200
0000
0700
0700
ENDCHAR
STARTCHAR uni0019
ENCODING 25
SWIDTH 500 0
DWIDTH 16 0
BBX 3 31 5 -5
BITMAP
60
E0
00
00
E0
00
00
E0
00
00
E0
40
00
E0
E0
00
60
E0
00
00
E0
00
00
E0
00
00
E0
40
00
E0
E0
ENDCHAR
STARTCHAR uni001A
ENCODING 26
SWIDTH 500 0
DWIDTH 16 0
BBX 13 24 0 -2
BITMAP
0038
0000
0000
03C0
0000
0000
1C00
0C00
0000
E000
E000
0000
0C00
1C00
0000
0000
03C0
0000
0000
0038
0000
0000
FFF8
0F90
ENDCHAR
STARTCHAR uni001B
ENCODING 27
SWIDTH 500 0
DWIDTH 16 0
BBX 13 24 0 -2
BITMAP
E000
0000
0000
1C00
0000
0000
03C0
0180
0000
0038
0038
0000
0180
03C0
0000
0000
1C00
0000
0000
E000
0000
0000
FFF8
0F90
ENDCHAR
STARTCHAR uni001C
ENCODING 28
SWIDTH 500 0
DWIDTH 16 0
BBX 13 14 0 2
BITMAP
FFF8
0F90
0000
1CE0
1CE0
0000
0C40
1CE0
0000
0000
1CE0
0000
0000
38E0
ENDCHAR
STARTCHAR uni001D
ENCODING 29
SWIDTH 500 0
DWIDTH 16 0
BBX 13 20 0 2
BITMAP
0038
0000
0000
00E0
0000
0000
FFF8
0F90
0000
0700
0700
0000
5F00
FFF8
0000
0000
3800
0000
0000
E000
ENDCHAR
STARTCHAR uni001E
ENCODING 30
SWIDTH 500 0
DWIDTH 16 0
BBX 13 24 0 -2
BITMAP
07E0
0000
0000
1C38
0000
0000
1C00
0C00
0000
FF80
FF80
0000
0C00
1C00
0000
0000
3FC0
0000
0000
FCF8
0000
0000
3800
3000
ENDCHAR
STARTCHAR uni001F
ENCODING 31
SWIDTH 500 0
DWIDTH 16 0
BBX 3 2 5 11
BITMAP
E0
E0
ENDCHAR
STARTCHAR space
ENCODING 32
SWIDTH 500 0
DWIDTH 16 0
BBX 1 1 0 0
BITMAP
00
ENDCHAR
STARTCHAR exclam
ENCODING 33
SWIDTH 500 0
DWIDTH 16 0
BBX 3 20 5 2
BITMAP
E0
00
00
E0
00
00
E0
40
00
E0
E0
00
60
E0
00
00
00
00
00
E0
ENDCHAR
STARTCHAR quotedbl
ENCODING 34
SWIDTH 500 0
DWIDTH 16 0
BBX 8 8 2 14
BITMAP
EF
00
00
EF
00
00
EF
C6
ENDCHAR
STARTCHAR numbersign
ENCODING 35
SWIDTH 500 0
DWIDTH 16 0
BBX 11 20 0 2
BITMAP
3BC0
0000
0000
3BC0
0000
0000
FFE0
0F00
0000
3980
3980
0000
5E40
FFE0
0000
0000
3BC0
0000
0000
3BC0
ENDCHAR
STARTCHAR dollar
ENCODING 36
SWIDTH 500 0
DWIDTH 16 0
BBX 13 20 0 2
BITMAP
0700
0000
0000
3FE0
0000
0000
E700
C200
0000
3FE0
3FE0
0000
0330
0738
0000
0000
3FE0
0000
0000
0700
ENDCHAR
STARTCHAR percent
ENCODING 37
SWIDTH 500 0
DWIDTH 16 0
BBX 13 20 0 2
BITMAP
3838
0000
0000
FCE0
0000
0000
3BC0
3180
0000
0700
0700
0000
0C40
1CE0
0000
0000
3BF8
0000
0000
E0E0
ENDCHAR
STARTCHAR ampersand
ENCODING 38
SWIDTH 500 0
DWIDTH 16 0
BBX 13 20 0 2
BITMAP
3F00
0000
0000
E3C0
0000
0000
E3C0
C180
0000
3F00
3F00
0000
40F0
E3F8
0000
0000
E0E0
0000
0000
3FF8
ENDCHAR
STARTCHAR quotesingle
ENCODING 39
SWIDTH 500 0
DWIDTH 16 0
BBX 7 8 3 14
BITMAP
3E
00
00
38
00
00
E0
60
ENDCHAR
STARTCHAR parenleft
ENCODING 40
SWIDTH 500 0
DWIDTH 16 0
BBX 7 20 3 2
BITMAP
1E
00
00
38
00
00
E0
60
00
E0
E0
00
60
E0
00
00
38
00
00
1E
ENDCHAR
STARTCHAR parenright
ENCODING 41
SWIDTH 500 0
DWIDTH 16 0
BBX 7 20 3 2
BITMAP
E0
00
00
38
00
00
1E
0C
00
0C
0C
00
0C
1E
00
00
38
00
00
E0
ENDCHAR
STARTCHAR asterisk
ENCODING 42
SWIDTH 500 0
DWIDTH 16 0
BBX 13 14 0 5
BITMAP
38E0
0000
0000
1FC0
0F00
0000
FFF8
FFF8
0000
0F00
1FC0
0000
0000
38E0
ENDCHAR
STARTCHAR plus
ENCODING 43
SWIDTH 500 0
DWIDTH 16 0
BBX 13 14 0 5
BITMAP
0700
0000
0000
0700
0200
0000
FFF8
FFF8
0000
0300
0700
0000
0000
0700
ENDCHAR
STARTCHAR comma
ENCODING 44
SWIDTH 500 0
DWIDTH 16 0
BBX 6 8 2 -2
BITMAP
7C
00
00
70
00
00
E0
C0
ENDCHAR
STARTCHAR hyphen
ENCODING 45
SWIDTH 500 0
DWIDTH 16 0
BBX 13 2 0 11
BITMAP
FFF8
FFF8
ENDCHAR
STARTCHAR period
ENCODING 46
SWIDTH 500 0
DWIDTH 16 0
BBX 5 4 3 2
BITMAP
F8
00
00
F8
ENDCHAR
STARTCHAR slash
ENCODING 47
SWIDTH 500 0
DWIDTH 16 0
BBX 13 20 0 2
BITMAP
0038
0000
0000
00E0
0000
0000
03C0
0180
0000
0700
0700
0000
0C00
1C00
0000
0000
3800
0000
0000
E000
ENDCHAR
STARTCHAR zero
ENCODING 48
SWIDTH 500 0
DWIDTH 16 0
BBX 13 20 0 2
BITMAP
1FC0
0000
0000
38E0
0000
0000
E038
C030
0000
E038
E038
0000
4030
E038
0000
0000
38E0
0000
0000
1FC0
ENDCHAR
STARTCHAR one
ENCODING 49
SWIDTH 500 0
DWIDTH 16 0
BBX 9 20 2 2
BITMAP
1C00
0000
0000
7C00
0000
0000
FC00
7800
0000
1C00
1C00
0000
0C00
1C00
0000
0000
1C00
0000
0000
FF80
ENDCHAR
STARTCHAR two
ENCODING 50
SWIDTH 500 0
DWIDTH 16 0
BBX 13 20 0 2
BITMAP
3FE0
0000
0000
E038
0000
0000
0038
0030
0000
07E0
07E0
0000
3800
3C00
0000
0000
E000
0000
0000
FFF8
ENDCHAR
STARTCHAR three
ENCODING 51
SWIDTH 500 0
DWIDTH 16 0
BBX 13 20 0 2
BITMAP
FFF8
0000
0000
00E0
0000
0000
03C0
0180
0000
07E0
07E0
0000
0030
0038
0000
0000
E038
0000
0000
3FE0
ENDCHAR
STARTCHAR four
ENCODING 52
SWIDTH 500 0
DWIDTH 16 0
BBX 13 20 0 2
BITMAP
03C0
0000
0000
07C0
0000
0000
1FC0
0F00
0000
3980
3980
0000
5F00
FFF8
0000
0000
03C0
0000
0000
03C0
ENDCHAR
STARTCHAR five
ENCODING 53
SWIDTH 500 0
DWIDTH 16 0
BBX 13 20 0 2
BITMAP
FFF8
0000
0000
E000
0000
0000
FFE0
0F00
0000
F838
F838
0000
0030
0038
0000
0000
E038
0000
0000
3FE0
ENDCHAR
STARTCHAR six
ENCODING 54
SWIDTH 500 0
DWIDTH 16 0
BBX 13 20 0 2
BITMAP
1FE0
0000
0000
3800
0000
0000
E000
C000
0000
FFE0
FFE0
0000
7030
F838
0000
0000
E038
0000
0000
3FE0
ENDCHAR
STARTCHAR seven
ENCODING 55
SWIDTH 500 0
DWIDTH 16 0
BBX 13 20 0 2
BITMAP
FFF8
0000
0000
0038
0000
0000
00E0
00C0
0000
0180
0180
0000
0300
0700
0000
0000
1C00
0000
0000
1C00
ENDCHAR
STARTCHAR eight
ENCODING 56
SWIDTH 500 0
DWIDTH 16 0
BBX 13 20 0 2
BITMAP
3FE0
0000
0000
E038
0000
0000
E038
C030
0000
3FE0
3FE0
0000
4030
E038
0000
0000
E038
0000
0000
3FE0
ENDCHAR
STARTCHAR nine
ENCODING 57
SWIDTH 500 0
DWIDTH 16 0
BBX 13 20 0 2
BITMAP
3FE0
0000
0000
E038
0000
0000
E0F8
C0F0
0000
3FF8
3FF8
0000
0030
0038
0000
0000
00E0
0000
0000
3FC0
ENDCHAR
STARTCHAR colon
ENCODING 58
SWIDTH 500 0
DWIDTH 16 0
BBX 5 17 3 2
BITMAP
F8
00
00
F8
70
00
00
00
00
00
00
00
00
F8
00
00
F8
ENDCHAR
STARTCHAR semicolon
ENCODING 59
SWIDTH 500 0
DWIDTH 16 0
BBX 6 21 2 -2
BITMAP
7C
00
00
7C
38
00
00
00
00
00
00
00
00
7C
00
00
70
00
00
E0
C0
ENDCHAR
STARTCHAR less
ENCODING 60
SWIDTH 500 0
DWIDTH 16 0
BBX 13 20 0 2
BITMAP
0038
0000
0000
03C0
0000
0000
1C00
0C00
0000
E000
E000
0000
0C00
1C00
0000
0000
03C0
0000
0000
0038
ENDCHAR
STARTCHAR equal
ENCODING 61
SWIDTH 500 0
DWIDTH 16 0
BBX 13 8 0 8
BITMAP
FFF8
0F90
0000
0000
0000
0000
5F00
FFF8
ENDCHAR
STARTCHAR greater
ENCODING 62
SWIDTH 500 0
DWIDTH 16 0
BBX 13 20 0 2
BITMAP
E000
0000
0000
1C00
0000
0000
03C0
0180
0000
0038
0038
0000
0180
03C0
0000
0000
1C00
0000
0000
E000
ENDCHAR
STARTCHAR question
ENCODING 63
SWIDTH 500 0
DWIDTH 16 0
BBX 13 20 0 2
BITMAP
3FE0
0000
0000
E038
0000
0000
03E0
01C0
0000
0700
0700
0000
0300
0700
0000
0000
0000
0000
0000
0700
ENDCHAR
STARTCHAR at
ENCODING 64
SWIDTH 500 0
DWIDTH 16 0
BBX 13 20 0 2
BITMAP
3FE0
0000
0000
E038
0000
0000
E7F8
C3F0
0000
FCF8
FCF8
0000
43F0
E7F8
0000
0000
E000
0000
0000
3FE0
ENDCHAR
STARTCHAR A
ENCODING 65
SWIDTH 500 0
DWIDTH 16 0
BBX 13 20 0 2
BITMAP
0700
0000
0000
1FC0
0000
0000
38E0
30C0
0000
E038
E038
0000
5F00
FFF8
0000
0000
E038
0000
0000
E038
ENDCHAR
STARTCHAR B
ENCODING 66
SWIDTH 500 0
DWIDTH 16 0
BBX 13 20 0 2
BITMAP
FFE0
0000
0000
3838
0000
0000
3838
3030
0000
3FE0
3FE0
0000
3030
3838
0000
0000
3838
0000
0000
FFE0
ENDCHAR
STARTCHAR C
ENCODING 67
SWIDTH 500 0
DWIDTH 16 0
BBX 13 20 0 2
BITMAP
1FE0
0000
0000
3838
0000
0000
E000
C000
0000
E000
E000
0000
4000
E000
0000
0000
3838
0000
0000
1FE0
ENDCHAR
STARTCHAR D
ENCODING 68
SWIDTH 500 0
DWIDTH 16 0
BBX 13 20 0 2
BITMAP
FFC0
0000
0000
38E0
0000
0000
3838
3030
0000
3838
3838
0000
3030
3838
0000
0000
38E0
0000
0000
FFC0
ENDCHAR
STARTCHAR E
ENCODING 69
SWIDTH 500 0
DWIDTH 16 0
BBX 13 20 0 2
BITMAP
FFF8
0000
0000
E000
0000
0000
E000
C000
0000
FF80
FF80
0000
4000
E000
0000
0000
E000
0000
0000
FFF8
ENDCHAR
STARTCHAR F
ENCODING 70
SWIDTH 500 0
DWIDTH 16 0
BBX 13 20 0 2
BITMAP
FFF8
0000
0000
E000
0000
0000
E000
C000
0000
FF80
FF80
0000
4000
E000
0000
0000
E000
0000
0000
E000
ENDCHAR
STARTCHAR G
ENCODING 71
SWIDTH 500 0
DWIDTH 16 0
BBX 13 20 0 2
BITMAP
1FE0
0000
0000
3838
0000
0000
E000
C000
0000
E000
E000
0000
40F0
E3F8
0000
0000
3838
0000
0000
1FE0
ENDCHAR
STARTCHAR H
ENCODING 72
SWIDTH 500 0
DWIDTH 16 0
BBX 13 20 0 2
BITMAP
E038
0000
0000
E038
0000
0000
E038
C030
0000
FFF8
FFF8
0000
4030
E038
0000
0000
E038
0000
0000
E038
ENDCHAR
STARTCHAR I
ENCODING 73
SWIDTH 500 0
DWIDTH 16 0
BBX 9 20 2 2
BITMAP
FF80
0000
0000
1C00
0000
0000
1C00
0800
0000
1C00
1C00
0000
0C00
1C00
0000
0000
1C00
0000
0000
FF80
ENDCHAR
STARTCHAR J
ENCODING 74
SWIDTH 500 0
DWIDTH 16 0
BBX 13 20 0 2
BITMAP
03F8
0000
0000
00E0
0000
0000
00E0
00C0
0000
00E0
00E0
0000
0040
00E0
0000
0000
E0E0
0000
0000
3FC0
ENDCHAR
STARTCHAR K
ENCODING 75
SWIDTH 500 0
DWIDTH 16 0
BBX 13 20 0 2
BITMAP
E038
0000
0000
E3E0
0000
0000
FF00
7E00
0000
F800
F800
0000
7E00
FF00
0000
0000
E3E0
0000
0000
E038
ENDCHAR
STARTCHAR L
ENCODING 76
SWIDTH 500 0
DWIDTH 16 0
BBX 13 20 0 2
BITMAP
E000
0000
0000
E000
0000
0000
E000
C000
0000
E000
E000
0000
4000
E000
0000
0000
E000
0000
0000
FFF8
ENDCHAR
STARTCHAR M
ENCODING 77
SWIDTH 500 0
DWIDTH 16 0
BBX 13 20 0 2
BITMAP
E038
0000
0000
F8F8
0000
0000
FFF8
0F90
0000
E738
E738
0000
4030
E038
0000
0000
E038
0000
0000
E038
ENDCHAR
STARTCHAR N
ENCODING 78
SWIDTH 500 0
DWIDTH 16 0
BBX 13 20 0 2
BITMAP
E038
0000
0000
F838
0000
0000
FC38
7830
0000
E738
E738
0000
40F0
E3F8
0000
0000
E0F8
0000
0000
E038
ENDCHAR
STARTCHAR O
ENCODING 79
SWIDTH 500 0
DWIDTH 16 0
BBX 13 20 0 2
BITMAP
3FE0
0000
0000
E038
0000
0000
E038
C030
0000
E038
E038
0000
4030
E038
0000
0000
E038
0000
0000
3FE0
ENDCHAR
STARTCHAR P
ENCODING 80
SWIDTH 500 0
DWIDTH 16 0
BBX 13 20 0 2
BITMAP
FFE0
0000
0000
E038
0000
0000
E038
C030
0000
FFE0
FFE0
0000
4000
E000
0000
0000
E000
0000
0000
E000
ENDCHAR
STARTCHAR Q
ENCODING 81
SWIDTH 500 0
DWIDTH 16 0
BBX 13 20 0 2
BITMAP
3FE0
0000
0000
E038
0000
0000
E038
C030
0000
E038
E038
0000
40F0
E3F8
0000
0000
E0E0
0000
0000
3FF8
ENDCHAR
STARTCHAR R
ENCODING 82
SWIDTH 500 0
DWIDTH 16 0
BBX 13 20 0 2
BITMAP
FFE0
0000
0000
E038
0000
0000
E038
C030
0000
FFE0
FFE0
0000
4180
E3C0
0000
0000
E0E0
0000
0000
E038
ENDCHAR
STARTCHAR S
ENCODING 83
SWIDTH 500 0
DWIDTH 16 0
BBX 13 20 0 2
BITMAP
3FE0
0000
0000
E038
0000
0000
E000
C000
0000
3FE0
3FE0
0000
0030
0038
0000
0000
E038
0000
0000
3FE0
ENDCHAR
STARTCHAR T
ENCODING 84
SWIDTH 500 0
DWIDTH 16 0
BBX 13 20 0 2
BITMAP
FFF8
0000
0000
0700
0000
0000
0700
0200
0000
0700
0700
0000
0300
0700
0000
0000
0700
0000
0000
0700
ENDCHAR
STARTCHAR U
ENCODING 85
SWIDTH 500 0
DWIDTH 16 0
BBX 13 20 0 2
BITMAP
E038
0000
0000
E038
0000
0000
E038
C030
0000
E038
E038
0000
4030
E038
0000
0000
E038
0000
0000
3FE0
ENDCHAR
STARTCHAR V
ENCODING 86
SWIDTH 500 0
DWIDTH 16 0
BBX 13 20 0 2
BITMAP
E038
0000
0000
E038
0000
0000
38E0
30C0
0000
38E0
38E0
0000
0F00
1FC0
0000
0000
1FC0
0000
0000
0700
ENDCHAR
STARTCHAR W
ENCODING 87
SWIDTH 500 0
DWIDTH 16 0
BBX 13 20 0 2
BITMAP
E038
0000
0000
E038
0000
0000
E038
C030
0000
E738
E738
0000
4330
E738
0000
0000
FFF8
0000
0000
38E0
ENDCHAR
STARTCHAR X
ENCODING 88
SWIDTH 500 0
DWIDTH 16 0
BBX 13 20 0 2
BITMAP
E038
0000
0000
38E0
0000
0000
1FC0
0F00
0000
0700
0700
0000
0F00
1FC0
0000
0000
38E0
0000
0000
E038
ENDCHAR
STARTCHAR Y
ENCODING 89
SWIDTH 500 0
DWIDTH 16 0
BBX 13 20 0 2
BITMAP
E038
0000
0000
38E0
0000
0000
1FC0
0F00
0000
0700
0700
0000
0300
0700
0000
0000
0700
0000
0000
0700
ENDCHAR
STARTCHAR Z
ENCODING 90
SWIDTH 500 0
DWIDTH 16 0
BBX 13 20 0 2
BITMAP
FFF8
0000
0000
00E0
0000
0000
03C0
0180
0000
0700
0700
0000
0C00
1C00
0000
0000
3800
0000
0000
FFF8
ENDCHAR
STARTCHAR bracketleft
ENCODING 91
SWIDTH 500 0
DWIDTH 16 0
BBX 8 20 3 2
BITMAP
FF
00
00
E0
00
00
E0
60
00
E0
E0
00
60
E0
00
00
E0
00
00
FF
ENDCHAR
STARTCHAR backslash
ENCODING 92
SWIDTH 500 0
DWIDTH 16 0
BBX 13 20 0 2
BITMAP
E000
0000
0000
3800
0000
0000
1C00
0C00
0000
0700
0700
0000
0180
03C0
0000
0000
00E0
0000
0000
0038
ENDCHAR
STARTCHAR bracketright
ENCODING 93
SWIDTH 500 0
DWIDTH 16 0
BBX 8 20 2 2
BITMAP
FF
00
00
0F
00
00
0F
06
00
06
06
00
06
0F
00
00
0F
00
00
FF
ENDCHAR
STARTCHAR asciicircum
ENCODING 94
SWIDTH 500 0
DWIDTH 16 0
BBX 13 11 0 11
BITMAP
0700
0000
0000
1FC0
0000
0000
38E0
30C0
0000
E038
E038
ENDCHAR
STARTCHAR underscore
ENCODING 95
SWIDTH 500 0
DWIDTH 16 0
BBX 13 1 0 2
BITMAP
FFF8
ENDCHAR
STARTCHAR grave
ENCODING 96
SWIDTH 500 0
DWIDTH 16 0
BBX 7 8 3 14
BITMAP
F8
00
00
38
00
00
1E
0C
ENDCHAR
STARTCHAR a
ENCODING 97
SWIDTH 500 0
DWIDTH 16 0
BBX 13 14 0 2
BITMAP
3FE0
0780
0000
0038
0038
0000
0780
3FF8
0000
0000
E0F8
0000
0000
3FF8
ENDCHAR
STARTCHAR b
ENCODING 98
SWIDTH 500 0
DWIDTH 16 0
BBX 13 20 0 2
BITMAP
E000
0000
0000
E000
0000
0000
FFE0
0F00
0000
F838
F838
0000
4030
E038
0000
0000
F838
0000
0000
FFE0
ENDCHAR
STARTCHAR c
ENCODING 99
SWIDTH 500 0
DWIDTH 16 0
BBX 13 14 0 2
BITMAP
3FE0
0780
0000
E038
E038
0000
4000
E000
0000
0000
E000
0000
0000
3FF8
ENDCHAR
STARTCHAR d
ENCODING 100
SWIDTH 500 0
DWIDTH 16 0
BBX 13 20 0 2
BITMAP
0038
0000
0000
0038
0000
0000
3FF8
07C0
0000
E0F8
E0F8
0000
4030
E038
0000
0000
E0F8
0000
0000
3FF8
ENDCHAR
STARTCHAR e
ENCODING 101
SWIDTH 500 0
DWIDTH 16 0
BBX 13 14 0 2
BITMAP
3FE0
0780
0000
E038
E038
0000
5F00
FFF8
0000
0000
E000
0000
0000
3FE0
ENDCHAR
STARTCHAR f
ENCODING 102
SWIDTH 500 0
DWIDTH 16 0
BBX 13 20 0 2
BITMAP
07E0
0000
0000
1C38
0000
0000
1C00
0C00
0000
FF80
FF80
0000
0C00
1C00
0000
0000
1C00
0000
0000
1C00
ENDCHAR
STARTCHAR g
ENCODING 103
SWIDTH 500 0
DWIDTH 16 0
BBX 13 21 0 -5
BITMAP
3FF8
07C0
0000
E0E0
E0E0
0000
3F80
3FC0
0000
0000
E000
0000
0000
3FE0
0000
0000
E038
C030
0000
3FE0
3FE0
ENDCHAR
STARTCHAR h
ENCODING 104
SWIDTH 500 0
DWIDTH 16 0
BBX 13 20 0 2
BITMAP
E000
0000
0000
E000
0000
0000
FFE0
0F00
0000
F838
F838
0000
4030
E038
0000
0000
E038
0000
0000
E038
ENDCHAR
STARTCHAR i
ENCODING 105
SWIDTH 500 0
DWIDTH 16 0
BBX 9 20 2 2
BITMAP
1C00
0000
0000
0000
0000
0000
7C00
3800
0000
1C00
1C00
0000
0C00
1C00
0000
0000
1C00
0000
0000
FF80
ENDCHAR
STARTCHAR j
ENCODING 106
SWIDTH 500 0
DWIDTH 16 0
BBX 11 27 0 -5
BITMAP
00E0
0000
0000
0000
0000
0000
00E0
00C0
0000
00E0
00E0
0000
0040
00E0
0000
0000
00E0
0000
0000
E0E0
0000
0000
E0E0
C0C0
0000
3F80
3F80
ENDCHAR
STARTCHAR k
ENCODING 107
SWIDTH 500 0
DWIDTH 16 0
BBX 13 20 0 2
BITMAP
E000
0000
0000
E000
0000
0000
E3C0
C180
0000
E700
E700
0000
7800
FC00
0000
0000
E3C0
0000
0000
E038
ENDCHAR
STARTCHAR l
ENCODING 108
SWIDTH 500 0
DWIDTH 16 0
BBX 7 20 3 2
BITMAP
F8
00
00
38
00
00
38
10
00
38
38
00
18
38
00
00
38
00
00
FE
ENDCHAR
STARTCHAR m
ENCODING 109
SWIDTH 500 0
DWIDTH 16 0
BBX 13 14 0 2
BITMAP
F8E0
F0C0
0000
FFF8
FFF8
0000
4330
E738
0000
0000
E738
0000
0000
E038
ENDCHAR
STARTCHAR n
ENCODING 110
SWIDTH 500 0
DWIDTH 16 0
BBX 13 14 0 2
BITMAP
FFE0
0F00
0000
F838
F838
0000
4030
E038
0000
0000
E038
0000
0000
E038
ENDCHAR
STARTCHAR o
ENCODING 111
SWIDTH 500 0
DWIDTH 16 0
BBX 13 14 0 2
BITMAP
3FE0
0780
0000
E038
E038
0000
4030
E038
0000
0000
E038
0000
0000
3FE0
ENDCHAR
STARTCHAR p
ENCODING 112
SWIDTH 500 0
DWIDTH 16 0
BBX 13 21 0 -5
BITMAP
FFE0
0F00
0000
F838
F838
0000
7030
F838
0000
0000
FFE0
0000
0000
E000
0000
0000
E000
C000
0000
E000
E000
ENDCHAR
STARTCHAR q
ENCODING 113
SWIDTH 500 0
DWIDTH 16 0
BBX 13 21 0 -5
BITMAP
3FF8
07C0
0000
E0F8
E0F8
0000
4070
E0F8
0000
0000
3FF8
0000
0000
0038
0000
0000
0038
0030
0000
0038
0038
ENDCHAR
STARTCHAR r
ENCODING 114
SWIDTH 500 0
DWIDTH 16 0
BBX 13 14 0 2
BITMAP
E7E0
C7E0
0000
3C38
3C38
0000
3000
3800
0000
0000
3800
0000
0000
3800
ENDCHAR
STARTCHAR s
ENCODING 115
SWIDTH 500 0
DWIDTH 16 0
BBX 13 14 0 2
BITMAP
3FE0
0780
0000
E000
E000
0000
0F00
3FE0
0000
0000
0038
0000
0000
FFE0
ENDCHAR
STARTCHAR t
ENCODING 116
SWIDTH 500 0
DWIDTH 16 0
BBX 11 20 0 2
BITMAP
1C00
0000
0000
1C00
0000
0000
FFC0
1E00
0000
1C00
1C00
0000
0C00
1C00
0000
0000
1CE0
0000
0000
07C0
ENDCHAR
STARTCHAR u
ENCODING 117
SWIDTH 500 0
DWIDTH 16 0
BBX 13 14 0 2
BITMAP
E0E0
C0C0
0000
E0E0
E0E0
0000
4040
E0E0
0000
0000
E0E0
0000
0000
3FF8
ENDCHAR
STARTCHAR v
ENCODING 118
SWIDTH 500 0
DWIDTH 16 0
BBX 13 14 0 2
BITMAP
E038
C030
0000
E038
E038
0000
3040
38E0
0000
0000
1FC0
0000
0000
0700
ENDCHAR
STARTCHAR w
ENCODING 119
SWIDTH 500 0
DWIDTH 16 0
BBX 13 14 0 2
BITMAP
E038
C030
0000
E038
E038
0000
4330
E738
0000
0000
FFF8
0000
0000
38E0
ENDCHAR
STARTCHAR x
ENCODING 120
SWIDTH 500 0
DWIDTH 16 0
BBX 11 14 0 2
BITMAP
E0E0
C0C0
0000
3980
3980
0000
0E00
1F00
0000
0000
3BC0
0000
0000
E0E0
ENDCHAR
STARTCHAR y
ENCODING 121
SWIDTH 500 0
DWIDTH 16 0
BBX 11 21 0 -5
BITMAP
E0E0
C0C0
0000
E0E0
E0E0
0000
41C0
E3E0
0000
0000
3FE0
0000
0000
00E0
0000
0000
E0E0
C0C0
0000
3F80
3F80
ENDCHAR
STARTCHAR z
ENCODING 122
SWIDTH 500 0
DWIDTH 16 0
BBX 13 14 0 2
BITMAP
FFF8
0F90
0000
00E0
00E0
0000
0380
07C0
0000
0000
1C00
0000
0000
FFF8
ENDCHAR
STARTCHAR braceleft
ENCODING 123
SWIDTH 500 0
DWIDTH 16 0
BBX 10 20 3 2
BITMAP
1FC0
0000
0000
3800
0000
0000
1E00
0C00
0000
F800
F800
0000
0C00
1E00
0000
0000
3800
0000
0000
1FC0
ENDCHAR
STARTCHAR bar
ENCODING 124
SWIDTH 500 0
DWIDTH 16 0
BBX 3 20 5 2
BITMAP
E0
00
00
E0
00
00
E0
40
00
E0
E0
00
60
E0
00
00
E0
00
00
E0
ENDCHAR
STARTCHAR braceright
ENCODING 125
SWIDTH 500 0
DWIDTH 16 0
BBX 9 20 0 2
BITMAP
FC00
0000
0000
0700
0000
0000
1C00
0C00
0000
0780
0780
0000
0C00
1C00
0000
0000
0700
0000
0000
FC00
ENDCHAR
STARTCHAR asciitilde
ENCODING 126
SWIDTH 500 0
DWIDTH 16 0
BBX 13 8 0 14
BITMAP
3C38
0000
0000
E738
0000
0000
E3E0
C1C0
ENDCHAR
STARTCHAR uni007F
ENCODING 127
SWIDTH 500 0
DWIDTH 16 0
BBX 10 27 0 -5
BITMAP
FC00
0000
0000
E700
0000
0000
E700
C200
0000
E700
E700
0000
3C00
FFC0
0000
0000
1C00
0000
0000
1C00
0000
0000
1C00
0C00
0000
1C00
1C00
ENDCHAR
STARTCHAR uni0080
ENCODING 128
SWIDTH 500 0
DWIDTH 16 0
BBX 13 27 0 -5
BITMAP
3C00
0000
0000
E700
0000
0000
3C00
1C00
0000
E700
E700
0000
0F00
3FE0
0000
0000
0738
0000
0000
0738
0000
0000
0738
0230
0000
01E0
01E0
ENDCHAR
STARTCHAR uni0081
ENCODING 129
SWIDTH 500 0
DWIDTH 16 0
BBX 13 27 0 -5
BITMAP
3C00
0000
0000
E700
0000
0000
3C00
1C00
0000
E700
E700
0000
3840
3CE0
0000
0000
03E0
0000
0000
00E0
0000
0000
00E0
00C0
0000
01F8
01F8
ENDCHAR
STARTCHAR uni0082
ENCODING 130
SWIDTH 500 0
DWIDTH 16 0
BBX 13 27 0 -5
BITMAP
3C00
0000
0000
E700
0000
0000
3C00
1C00
0000
E700
E700
0000
0F00
3FE0
0000
0000
0738
0000
0000
00E0
0000
0000
03C0
0180
0000
07F8
07F8
ENDCHAR
STARTCHAR uni0083
ENCODING 131
SWIDTH 500 0
DWIDTH 16 0
BBX 13 27 0 -5
BITMAP
3C00
0000
0000
E700
0000
0000
3C00
1C00
0000
E700
E700
0000
0780
3FF8
0000
0000
0038
0000
0000
03E0
0000
0000
0038
0030
0000
07E0
07E0
ENDCHAR
STARTCHAR uni0084
ENCODING 132
SWIDTH 500 0
DWIDTH 16 0
BBX 13 27 0 -5
BITMAP
3C00
0000
0000
E700
0000
0000
3C00
1C00
0000
E700
E700
0000
3840
3CE0
0000
0000
03E0
0000
0000
07E0
0000
0000
1FF8
03E0
0000
00E0
00E0
ENDCHAR
STARTCHAR uni0085
ENCODING 133
SWIDTH 500 0
DWIDTH 16 0
BBX 13 27 0 -5
BITMAP
3C00
0000
0000
E700
0000
0000
3C00
1C00
0000
E700
E700
0000
0780
3FF8
0000
0000
0700
0000
0000
07E0
0000
0000
0038
0030
0000
07E0
07E0
ENDCHAR
STARTCHAR uni0086
ENCODING 134
SWIDTH 500 0
DWIDTH 16 0
BBX 13 27 0 -5
BITMAP
3C00
0000
0000
E700
0000
0000
3C00
1C00
0000
E700
E700
0000
3870
3CF8
0000
0000
03C0
0000
0000
07E0
0000
0000
0738
0230
0000
01E0
01E0
ENDCHAR
STARTCHAR uni0087
ENCODING 135
SWIDTH 500 0
DWIDTH 16 0
BBX 13 27 0 -5
BITMAP
3C00
0000
0000
E700
0000
0000
3C00
1C00
0000
E700
E700
0000
0780
3FF8
0000
0000
0038
0000
0000
00E0
0000
0000
03C0
0180
0000
0180
0180
ENDCHAR
STARTCHAR uni0088
ENCODING 136
SWIDTH 500 0
DWIDTH 16 0
BBX 13 27 0 -5
BITMAP
3C00
0000
0000
E700
0000
0000
3C00
1C00
0000
E700
E700
0000
0F00
3FE0
0000
0000
0738
0000
0000
03E0
0000
0000
0738
0230
0000
01E0
01E0
ENDCHAR
STARTCHAR uni0089
ENCODING 137
SWIDTH 500 0
DWIDTH 16 0
BBX 13 27 0 -5
BITMAP
3C00
0000
0000
E700
0000
0000
3C00
1C00
0000
E700
E700
0000
0F00
3FE0
0000
0000
0738
0000
0000
03F8
0000
0000
00E0
00C0
0000
0780
0780
ENDCHAR
STARTCHAR uni008A
ENCODING 138
SWIDTH 500 0
DWIDTH 16 0
BBX 13 27 0 -5
BITMAP
3C00
0000
0000
E700
0000
0000
3C00
1C00
0000
E700
E700
0000
0F00
3FE0
0000
0000
0738
0000
0000
07F8
0000
0000
0738
0230
0000
0738
0738
ENDCHAR
STARTCHAR uni008B
ENCODING 139
SWIDTH 500 0
DWIDTH 16 0
BBX 13 27 0 -5
BITMAP
3C00
0000
0000
E700
0000
0000
3C00
1C00
0000
E700
E700
0000
0F00
3FE0
0000
0000
0738
0000
0000
07E0
0000
0000
0738
0230
0000
07E0
07E0
ENDCHAR
STARTCHAR uni008C
ENCODING 140
SWIDTH 500 0
DWIDTH 16 0
BBX 13 27 0 -5
BITMAP
3C00
0000
0000
E700
0000
0000
3C00
1C00
0000
E700
E700
0000
0780
3FF8
0000
0000
0700
0000
0000
0700
0000
0000
0700
0200
0000
01F8
01F8
ENDCHAR
STARTCHAR uni008D
ENCODING 141
SWIDTH 500 0
DWIDTH 16 0
BBX 13 27 0 -5
BITMAP
3C00
0000
0000
E700
0000
0000
3C00
1C00
0000
E700
E700
0000
0F00
3FE0
0000
0000
0738
0000
0000
0738
0000
0000
0738
0230
0000
07E0
07E0
ENDCHAR
STARTCHAR uni008E
ENCODING 142
SWIDTH 500 0
DWIDTH 16 0
BBX 13 27 0 -5
BITMAP
3C00
0000
0000
E700
0000
0000
3C00
1C00
0000
E700
E700
0000
0780
3FF8
0000
0000
0700
0000
0000
07E0
0000
0000
0700
0200
0000
07F8
07F8
ENDCHAR
STARTCHAR uni008F
ENCODING 143
SWIDTH 500 0
DWIDTH 16 0
BBX 13 27 0 -5
BITMAP
3C00
0000
0000
E700
0000
0000
3C00
1C00
0000
E700
E700
0000
0780
3FF8
0000
0000
0700
0000
0000
07E0
0000
0000
0700
0200
0000
0700
0700
ENDCHAR
STARTCHAR uni0090
ENCODING 144
SWIDTH 500 0
DWIDTH 16 0
BBX 13 27 0 -5
BITMAP
3C00
0000
0000
E700
0000
0000
3F00
1E00
0000
1C00
1C00
0000
71C0
FBE0
0000
0000
0738
0000
0000
0738
0000
0000
0738
0230
0000
01E0
01E0
ENDCHAR
STARTCHAR uni0091
ENCODING 145
SWIDTH 500 0
DWIDTH 16 0
BBX 13 27 0 -5
BITMAP
3C00
0000
0000
E700
0000
0000
3F00
1E00
0000
1C00
1C00
0000
7040
F8E0
0000
0000
03E0
0000
0000
00E0
0000
0000
00E0
00C0
0000
01F8
01F8
ENDCHAR
STARTCHAR uni0092
ENCODING 146
SWIDTH 500 0
DWIDTH 16 0
BBX 13 27 0 -5
BITMAP
3C00
0000
0000
E700
0000
0000
3F00
1E00
0000
1C00
1C00
0000
71C0
FBE0
0000
0000
0738
0000
0000
00E0
0000
0000
03C0
0180
0000
07F8
07F8
ENDCHAR
STARTCHAR uni0093
ENCODING 147
SWIDTH 500 0
DWIDTH 16 0
BBX 13 27 0 -5
BITMAP
3C00
0000
0000
E700
0000
0000
3F00
1E00
0000
1C00
1C00
0000
5F00
FFF8
0000
0000
0038
0000
0000
03E0
0000
0000
0038
0030
0000
07E0
07E0
ENDCHAR
STARTCHAR uni0094
ENCODING 148
SWIDTH 500 0
DWIDTH 16 0
BBX 13 27 0 -5
BITMAP
3C00
0000
0000
E700
0000
0000
3F00
1E00
0000
1C00
1C00
0000
7040
F8E0
0000
0000
03E0
0000
0000
07E0
0000
0000
1FF8
03E0
0000
00E0
00E0
ENDCHAR
STARTCHAR uni0095
ENCODING 149
SWIDTH 500 0
DWIDTH 16 0
BBX 13 27 0 -5
BITMAP
3C00
0000
0000
E700
0000
0000
3F00
1E00
0000
1C00
1C00
0000
5F00
FFF8
0000
0000
0700
0000
0000
07E0
0000
0000
0038
0030
0000
07E0
07E0
ENDCHAR
STARTCHAR uni0096
ENCODING 150
SWIDTH 500 0
DWIDTH 16 0
BBX 13 27 0 -5
BITMAP
3C00
0000
0000
E700
0000
0000
3F00
1E00
0000
1C00
1C00
0000
7070
F8F8
0000
0000
03C0
0000
0000
07E0
0000
0000
0738
0230
0000
01E0
01E0
ENDCHAR
STARTCHAR uni0097
ENCODING 151
SWIDTH 500 0
DWIDTH 16 0
BBX 13 27 0 -5
BITMAP
3C00
0000
0000
E700
0000
0000
3F00
1E00
0000
1C00
1C00
0000
5F00
FFF8
0000
0000
0038
0000
0000
00E0
0000
0000
03C0
0180
0000
0180
0180
ENDCHAR
STARTCHAR uni0098
ENCODING 152
SWIDTH 500 0
DWIDTH 16 0
BBX 13 27 0 -5
BITMAP
3C00
0000
0000
E700
0000
0000
3F00
1E00
0000
1C00
1C00
0000
71C0
FBE0
0000
0000
0738
0000
0000
03E0
0000
0000
0738
0230
0000
01E0
01E0
ENDCHAR
STARTCHAR uni0099
ENCODING 153
SWIDTH 500 0
DWIDTH 16 0
BBX 13 27 0 -5
BITMAP
3C00
0000
0000
E700
0000
0000
3F00
1E00
0000
1C00
1C00
0000
71C0
FBE0
0000
0000
0738
0000
0000
03F8
0000
0000
00E0
00C0
0000
0780
0780
ENDCHAR
STARTCHAR uni009A
ENCODING 154
SWIDTH 500 0
DWIDTH 16 0
BBX 13 27 0 -5
BITMAP
3C00
0000
0000
E700
0000
0000
3F00
1E00
0000
1C00
1C00
0000
71C0
FBE0
0000
0000
0738
0000
0000
07F8
0000
0000
0738
0230
0000
0738
0738
ENDCHAR
STARTCHAR uni009B
ENCODING 155
SWIDTH 500 0
DWIDTH 16 0
BBX 13 27 0 -5
BITMAP
3C00
0000
0000
E700
0000
0000
3F00
1E00
0000
1C00
1C00
0000
5E40
FFE0
0000
0000
0738
0000
0000
07E0
0000
0000
0738
0230
0000
07E0
07E0
ENDCHAR
STARTCHAR uni009C
ENCODING 156
SWIDTH 500 0
DWIDTH 16 0
BBX 13 27 0 -5
BITMAP
3C00
0000
0000
E700
0000
0000
3F00
1E00
0000
1C00
1C00
0000
70F0
FBF8
0000
0000
0700
0000
0000
0700
0000
0000
0700
0200
0000
01F8
01F8
ENDCHAR
STARTCHAR uni009D
ENCODING 157
SWIDTH 500 0
DWIDTH 16 0
BBX 13 27 0 -5
BITMAP
3C00
0000
0000
E700
0000
0000
3F00
1E00
0000
1C00
1C00
0000
5E40
FFE0
0000
0000
0738
0000
0000
0738
0000
0000
0738
0230
0000
07E0
07E0
ENDCHAR
STARTCHAR uni009E
ENCODING 158
SWIDTH 500 0
DWIDTH 16 0
BBX 13 27 0 -5
BITMAP
3C00
0000
0000
E700
0000
0000
3F00
1E00
0000
1C00
1C00
0000
5F00
FFF8
0000
0000
0700
0000
0000
07E0
0000
0000
0700
0200
0000
07F8
07F8
ENDCHAR
STARTCHAR uni009F
ENCODING 159
SWIDTH 500 0
DWIDTH 16 0
BBX 13 27 0 -5
BITMAP
3C00
0000
0000
E700
0000
0000
3F00
1E00
0000
1C00
1C00
0000
5F00
FFF8
0000
0000
0700
0000
0000
07E0
0000
0000
0700
0200
0000
0700
0700
ENDCHAR
STARTCHAR uni00A0
ENCODING 160
SWIDTH 500 0
DWIDTH 16 0
BBX 13 27 0 -5
BITMAP
3C00
0000
0000
E700
0000
0000
FF00
7E00
0000
E700
E700
0000
43E0
E7E0
0000
0000
0738
0000
0000
0738
0000
0000
0738
0230
0000
01E0
01E0
ENDCHAR
STARTCHAR exclamdown
ENCODING 161
SWIDTH 500 0
DWIDTH 16 0
BBX 3 20 5 2
BITMAP
E0
00
00
00
00
00
E0
40
00
E0
E0
00
60
E0
00
00
E0
00
00
E0
ENDCHAR
STARTCHAR cent
ENCODING 162
SWIDTH 500 0
DWIDTH 16 0
BBX 13 21 0 -2
BITMAP
0700
0000
0000
3FE0
0780
0000
E738
E738
0000
4300
E700
0000
0000
E738
0000
0000
3FE0
0000
0000
0700
0200
ENDCHAR
STARTCHAR sterling
ENCODING 163
SWIDTH 500 0
DWIDTH 16 0
BBX 13 24 0 -2
BITMAP
07E0
0000
0000
1C38
0000
0000
1C00
0C00
0000
FF80
FF80
0000
0C00
1C00
0000
0000
3FC0
0000
0000
FCF8
0000
0000
3800
3000
ENDCHAR
STARTCHAR currency
ENCODING 164
SWIDTH 500 0
DWIDTH 16 0
BBX 13 27 0 -5
BITMAP
3C00
0000
0000
E700
0000
0000
FF00
7E00
0000
E700
E700
0000
43E0
E7E0
0000
0000
03E0
0000
0000
07E0
0000
0000
1FF8
03E0
0000
00E0
00E0
ENDCHAR
STARTCHAR yen
ENCODING 165
SWIDTH 500 0
DWIDTH 16 0
BBX 13 20 0 2
BITMAP
E038
0000
0000
38E0
0000
0000
1FC0
0F00
0000
0700
0700
0000
5F00
FFF8
0000
0000
0700
0000
0000
0700
ENDCHAR
STARTCHAR brokenbar
ENCODING 166
SWIDTH 500 0
DWIDTH 16 0
BBX 13 27 0 -5
BITMAP
3C00
0000
0000
E700
0000
0000
FF00
7E00
0000
E700
E700
0000
43F0
E7F8
0000
0000
03C0
0000
0000
07E0
0000
0000
0738
0230
0000
01E0
01E0
ENDCHAR
STARTCHAR section
ENCODING 167
SWIDTH 500 0
DWIDTH 16 0
BBX 9 20 2 2
BITMAP
7F80
0000
0000
E000
0000
0000
7F00
3C00
0000
E380
E380
0000
3C00
7F00
0000
0000
0380
0000
0000
FF00
ENDCHAR
STARTCHAR dieresis
ENCODING 168
SWIDTH 500 0
DWIDTH 16 0
BBX 13 14 0 5
BITMAP
E038
0000
0000
3FE0
0780
0000
38E0
38E0
0000
0F00
3FE0
0000
0000
E038
ENDCHAR
STARTCHAR copyright
ENCODING 169
SWIDTH 500 0
DWIDTH 16 0
BBX 13 24 0 -2
BITMAP
1FC0
0000
0000
38E0
0000
0000
E7F8
C3F0
0000
FC38
FC38
0000
7830
FC38
0000
0000
E7F8
0000
0000
38E0
0000
0000
1FC0
0F00
ENDCHAR
STARTCHAR ordfeminine
ENCODING 170
SWIDTH 500 0
DWIDTH 16 0
BBX 13 20 0 2
BITMAP
3FE0
0000
0000
0038
0000
0000
3FF8
07C0
0000
E0F8
E0F8
0000
0780
3FF8
0000
0000
0000
0000
0000
FFF8
ENDCHAR
STARTCHAR guillemotleft
ENCODING 171
SWIDTH 500 0
DWIDTH 16 0
BBX 13 20 0 2
BITMAP
0738
0000
0000
1CE0
0000
0000
3BC0
3180
0000
E700
E700
0000
3180
3BC0
0000
0000
1CE0
0000
0000
0738
ENDCHAR
STARTCHAR logicalnot
ENCODING 172
SWIDTH 500 0
DWIDTH 16 0
BBX 13 27 0 -5
BITMAP
3C00
0000
0000
E700
0000
0000
FF00
7E00
0000
E700
E700
0000
43F0
E7F8
0000
0000
0700
0000
0000
0700
0000
0000
0700
0200
0000
01F8
01F8
ENDCHAR
STARTCHAR uni00AD
ENCODING 173
SWIDTH 500 0
DWIDTH 16 0
BBX 13 27 0 -5
BITMAP
3C00
0000
0000
E700
0000
0000
FF00
7E00
0000
E700
E700
0000
43E0
E7E0
0000
0000
0738
0000
0000
0738
0000
0000
0738
0230
0000
07E0
07E0
ENDCHAR
STARTCHAR registered
ENCODING 174
SWIDTH 500 0
DWIDTH 16 0
BBX 13 27 0 -5
BITMAP
3C00
0000
0000
E700
0000
0000
FF00
7E00
0000
E700
E700
0000
43F0
E7F8
0000
0000
0700
0000
0000
07E0
0000
0000
0700
0200
0000
07F8
07F8
ENDCHAR
STARTCHAR macron
ENCODING 175
SWIDTH 500 0
DWIDTH 16 0
BBX 13 27 0 -5
BITMAP
3C00
0000
0000
E700
0000
0000
FF00
7E00
0000
E700
E700
0000
43F0
E7F8
0000
0000
0700
0000
0000
07E0
0000
0000
0700
0200
0000
0700
0700
ENDCHAR
STARTCHAR degree
ENCODING 176
SWIDTH 500 0
DWIDTH 16 0
BBX 9 8 2 14
BITMAP
7F00
0000
0000
E380
0000
0000
7F00
3C00
ENDCHAR
STARTCHAR plusminus
ENCODING 177
SWIDTH 500 0
DWIDTH 16 0
BBX 13 17 0 2
BITMAP
0700
0000
0000
0700
0200
0000
FFF8
FFF8
0000
0300
0700
0000
0000
0700
0000
0000
FFF8
ENDCHAR
STARTCHAR uni00B2
ENCODING 178
SWIDTH 500 0
DWIDTH 16 0
BBX 9 15 2 11
BITMAP
3C00
7F00
0000
0000
E380
0000
0000
1F00
0000
0000
7000
3000
0000
FF80
FF80
ENDCHAR
STARTCHAR uni00B3
ENCODING 179
SWIDTH 500 0
DWIDTH 16 0
BBX 9 15 2 11
BITMAP
3C00
FF80
0000
0000
0380
0000
0000
1F00
0000
0000
0380
0300
0000
FE00
FE00
ENDCHAR
STARTCHAR acute
ENCODING 180
SWIDTH 500 0
DWIDTH 16 0
BBX 13 27 0 -5
BITMAP
FC00
0000
0000
E700
0000
0000
FC00
7800
0000
E700
E700
0000
7840
FCE0
0000
0000
03E0
0000
0000
07E0
0000
0000
1FF8
03E0
0000
00E0
00E0
ENDCHAR
STARTCHAR uni00B5
ENCODING 181
SWIDTH 500 0
DWIDTH 16 0
BBX 13 21 0 -5
BITMAP
3838
3030
0000
3838
3838
0000
3030
3838
0000
0000
3CF8
0000
0000
3FF8
0000
0000
3800
3000
0000
E000
E000
ENDCHAR
STARTCHAR paragraph
ENCODING 182
SWIDTH 500 0
DWIDTH 16 0
BBX 13 20 0 2
BITMAP
3FF8
0000
0000
FBF8
0000
0000
FBF8
F0F0
0000
3FF8
3FF8
0000
00F0
03F8
0000
0000
03F8
0000
0000
03F8
ENDCHAR
STARTCHAR periodcentered
ENCODING 183
SWIDTH 500 0
DWIDTH 16 0
BBX 5 5 3 11
BITMAP
F8
70
00
F8
F8
ENDCHAR
STARTCHAR cedilla
ENCODING 184
SWIDTH 500 0
DWIDTH 16 0
BBX 13 27 0 -5
BITMAP
FC00
0000
0000
E700
0000
0000
FC00
7800
0000
E700
E700
0000
5E40
FFE0
0000
0000
0738
0000
0000
03E0
0000
0000
0738
0230
0000
01E0
01E0
ENDCHAR
STARTCHAR uni00B9
ENCODING 185
SWIDTH 500 0
DWIDTH 16 0
BBX 6 15 3 11
BITMAP
18
38
00
00
F8
00
00
38
00
00
38
10
00
FC
FC
ENDCHAR
STARTCHAR ordmasculine
ENCODING 186
SWIDTH 500 0
DWIDTH 16 0
BBX 13 20 0 2
BITMAP
3FE0
0000
0000
E038
0000
0000
E038
C030
0000
E038
E038
0000
0F00
3FE0
0000
0000
0000
0000
0000
FFF8
ENDCHAR
STARTCHAR guillemotright
ENCODING 187
SWIDTH 500 0
DWIDTH 16 0
BBX 13 20 0 2
BITMAP
E700
0000
0000
3BC0
0000
0000
1CE0
0CC0
0000
0738
0738
0000
0C40
1CE0
0000
0000
3BC0
0000
0000
E700
ENDCHAR
STARTCHAR onequarter
ENCODING 188
SWIDTH 500 0
DWIDTH 16 0
BBX 13 27 0 -5
BITMAP
3800
0000
0000
F8E0
0000
0000
3BC0
3180
0000
3F00
3F00
0000
0C40
1CE0
0000
0000
3BE0
0000
0000
E7E0
0000
0000
1FF8
03E0
0000
00E0
00E0
ENDCHAR
STARTCHAR onehalf
ENCODING 189
SWIDTH 500 0
DWIDTH 16 0
BBX 13 27 0 -5
BITMAP
3800
0000
0000
F8E0
0000
0000
3BC0
3180
0000
3F00
3F00
0000
0FC0
1FE0
0000
0000
3F38
0000
0000
E0E0
0000
0000
03C0
0180
0000
07F8
07F8
ENDCHAR
STARTCHAR threequarters
ENCODING 190
SWIDTH 500 0
DWIDTH 16 0
BBX 13 27 0 -5
BITMAP
FC00
0000
0000
E700
0000
0000
FC00
7800
0000
E700
E700
0000
5F00
FFF8
0000
0000
0700
0000
0000
07E0
0000
0000
0700
0200
0000
07F8
07F8
ENDCHAR
STARTCHAR questiondown
ENCODING 191
SWIDTH 500 0
DWIDTH 16 0
BBX 13 20 0 2
BITMAP
0700
0000
0000
0000
0000
0000
0700
0200
0000
0700
0700
0000
3800
3C00
0000
0000
E038
0000
0000
3FE0
ENDCHAR
STARTCHAR Agrave
ENCODING 192
SWIDTH 500 0
DWIDTH 16 0
BBX 13 24 0 2
BITMAP
0E00
1F00
0000
0000
03E0
0000
0000
0700
0000
0000
1FC0
0F00
0000
38E0
38E0
0000
5F00
FFF8
0000
0000
E038
0000
0000
E038
ENDCHAR
STARTCHAR Aacute
ENCODING 193
SWIDTH 500 0
DWIDTH 16 0
BBX 13 24 0 2
BITMAP
0380
07C0
0000
0000
3C00
0000
0000
0700
0000
0000
1FC0
0F00
0000
38E0
38E0
0000
5F00
FFF8
0000
0000
E038
0000
0000
E038
ENDCHAR
STARTCHAR Acircumflex
ENCODING 194
SWIDTH 500 0
DWIDTH 16 0
BBX 13 24 0 2
BITMAP
0F00
1FC0
0000
0000
38E0
0000
0000
0700
0000
0000
1FC0
0F00
0000
38E0
38E0
0000
5F00
FFF8
0000
0000
E038
0000
0000
E038
ENDCHAR
STARTCHAR Atilde
ENCODING 195
SWIDTH 500 0
DWIDTH 16 0
BBX 13 24 0 2
BITMAP
0E30
1F38
0000
0000
3BE0
0000
0000
0700
0000
0000
1FC0
0F00
0000
38E0
38E0
0000
5F00
FFF8
0000
0000
E038
0000
0000
E038
ENDCHAR
STARTCHAR Adieresis
ENCODING 196
SWIDTH 500 0
DWIDTH 16 0
BBX 13 24 0 2
BITMAP
3040
38E0
0000
0000
0000
0000
0000
0700
0000
0000
1FC0
0F00
0000
38E0
38E0
0000
5F00
FFF8
0000
0000
E038
0000
0000
E038
ENDCHAR
STARTCHAR Aring
ENCODING 197
SWIDTH 500 0
DWIDTH 16 0
BBX 13 24 0 2
BITMAP
0F00
1FC0
0000
0000
38E0
0000
0000
1FC0
0000
0000
1FC0
0F00
0000
38E0
38E0
0000
5F00
FFF8
0000
0000
E038
0000
0000
E038
ENDCHAR
STARTCHAR AE
ENCODING 198
SWIDTH 500 0
DWIDTH 16 0
BBX 13 20 0 2
BITMAP
1FF8
0000
0000
3F00
0000
0000
E700
C200
0000
E7E0
E7E0
0000
7E00
FF00
0000
0000
E700
0000
0000
E7F8
ENDCHAR
STARTCHAR Ccedilla
ENCODING 199
SWIDTH 500 0
DWIDTH 16 0
BBX 13 27 0 -5
BITMAP
1FE0
0000
0000
3838
0000
0000
E000
C000
0000
E000
E000
0000
4000
E000
0000
0000
3838
0000
0000
1FE0
0000
0000
03C0
0180
0000
1F80
1F80
ENDCHAR
STARTCHAR Egrave
ENCODING 200
SWIDTH 500 0
DWIDTH 16 0
BBX 13 24 0 2
BITMAP
3800
3C00
0000
0000
07C0
0000
0000
FFF8
0000
0000
E000
C000
0000
FF80
FF80
0000
4000
E000
0000
0000
E000
0000
0000
FFF8
ENDCHAR
STARTCHAR Eacute
ENCODING 201
SWIDTH 500 0
DWIDTH 16 0
BBX 13 24 0 2
BITMAP
01C0
03E0
0000
0000
1F00
0000
0000
FFF8
0000
0000
E000
C000
0000
FF80
FF80
0000
4000
E000
0000
0000
E000
0000
0000
FFF8
ENDCHAR
STARTCHAR Ecircumflex
ENCODING 202
SWIDTH 500 0
DWIDTH 16 0
BBX 13 24 0 2
BITMAP
0F00
1FC0
0000
0000
38E0
0000
0000
FFF8
0000
0000
E000
C000
0000
FF00
FF00
0000
4000
E000
0000
0000
E000
0000
0000
FFF8
ENDCHAR
STARTCHAR Edieresis
ENCODING 203
SWIDTH 500 0
DWIDTH 16 0
BBX 13 24 0 2
BITMAP
3040
38E0
0000
0000
0000
0000
0000
FFF8
0000
0000
E000
C000
0000
FF80
FF80
0000
4000
E000
0000
0000
E000
0000
0000
FFF8
ENDCHAR
STARTCHAR Igrave
ENCODING 204
SWIDTH 500 0
DWIDTH 16 0
BBX 9 24 2 2
BITMAP
3800
7C00
0000
0000
0F80
0000
0000
FF80
0000
0000
1C00
0800
0000
1C00
1C00
0000
0C00
1C00
0000
0000
1C00
0000
0000
FF80
ENDCHAR
STARTCHAR Iacute
ENCODING 205
SWIDTH 500 0
DWIDTH 16 0
BBX 9 24 2 2
BITMAP
0E00
1F00
0000
0000
F000
0000
0000
FF80
0000
0000
1C00
0800
0000
1C00
1C00
0000
0C00
1C00
0000
0000
1C00
0000
0000
FF80
ENDCHAR
STARTCHAR Icircumflex
ENCODING 206
SWIDTH 500 0
DWIDTH 16 0
BBX 9 24 2 2
BITMAP
3C00
7F00
0000
0000
E380
0000
0000
FF80
0000
0000
1C00
0800
0000
1C00
1C00
0000
0C00
1C00
0000
0000
1C00
0000
0000
FF80
ENDCHAR
STARTCHAR Idieresis
ENCODING 207
SWIDTH 500 0
DWIDTH 16 0
BBX 9 24 2 2
BITMAP
C100
E380
0000
0000
0000
0000
0000
FF80
0000
0000
1C00
0800
0000
1C00
1C00
0000
0C00
1C00
0000
0000
1C00
0000
0000
FF80
ENDCHAR
STARTCHAR Eth
ENCODING 208
SWIDTH 500 0
DWIDTH 16 0
BBX 13 27 0 -5
BITMAP
FC00
0000
0000
E700
0000
0000
E700
C200
0000
E700
E700
0000
5E40
FFE0
0000
0000
0738
0000
0000
0738
0000
0000
0738
0230
0000
01E0
01E0
ENDCHAR
STARTCHAR Ntilde
ENCODING 209
SWIDTH 500 0
DWIDTH 16 0
BBX 13 24 0 2
BITMAP
0E30
1F38
0000
0000
3BE0
0000
0000
F838
0000
0000
FC38
7830
0000
E738
E738
0000
40F0
E3F8
0000
0000
E0F8
0000
0000
E038
ENDCHAR
STARTCHAR Ograve
ENCODING 210
SWIDTH 500 0
DWIDTH 16 0
BBX 13 24 0 2
BITMAP
0E00
1F00
0000
0000
03E0
0000
0000
3FE0
0000
0000
E038
C030
0000
E038
E038
0000
4030
E038
0000
0000
E038
0000
0000
3FE0
ENDCHAR
STARTCHAR Oacute
ENCODING 211
SWIDTH 500 0
DWIDTH 16 0
BBX 13 24 0 2
BITMAP
0380
07C0
0000
0000
3C00
0000
0000
3FE0
0000
0000
E038
C030
0000
E038
E038
0000
4030
E038
0000
0000
E038
0000
0000
3FE0
ENDCHAR
STARTCHAR Ocircumflex
ENCODING 212
SWIDTH 500 0
DWIDTH 16 0
BBX 13 24 0 2
BITMAP
0F00
1FC0
0000
0000
38E0
0000
0000
3FE0
0000
0000
E038
C030
0000
E038
E038
0000
4030
E038
0000
0000
E038
0000
0000
3FE0
ENDCHAR
STARTCHAR Otilde
ENCODING 213
SWIDTH 500 0
DWIDTH 16 0
BBX 13 24 0 2
BITMAP
3840
3CE0
0000
0000
E7C0
0000
0000
3FE0
0000
0000
E038
C030
0000
E038
E038
0000
4030
E038
0000
0000
E038
0000
0000
3FE0
ENDCHAR
STARTCHAR Odieresis
ENCODING 214
SWIDTH 500 0
DWIDTH 16 0
BBX 13 24 0 2
BITMAP
3040
38E0
0000
0000
0000
0000
0000
3FE0
0000
0000
E038
C030
0000
E038
E038
0000
4030
E038
0000
0000
E038
0000
0000
3FE0
ENDCHAR
STARTCHAR multiply
ENCODING 215
SWIDTH 500 0
DWIDTH 16 0
BBX 13 20 0 2
BITMAP
3FF8
0000
0000
E700
0000
0000
E700
C200
0000
E7E0
E7E0
0000
4300
E700
0000
0000
E700
0000
0000
3FF8
ENDCHAR
STARTCHAR Oslash
ENCODING 216
SWIDTH 500 0
DWIDTH 16 0
BBX 13 28 0 -2
BITMAP
0030
0038
0000
0000
3FE0
0000
0000
E0F8
0000
0000
E3F8
C0F0
0000
E738
E738
0000
7830
FC38
0000
0000
F838
0000
0000
3FE0
0000
0000
E000
C000
ENDCHAR
STARTCHAR Ugrave
ENCODING 217
SWIDTH 500 0
DWIDTH 16 0
BBX 13 24 0 2
BITMAP
3800
3C00
0000
0000
07C0
0000
0000
E038
0000
0000
E038
C030
0000
E038
E038
0000
4030
E038
0000
0000
E038
0000
0000
3FE0
ENDCHAR
STARTCHAR Uacute
ENCODING 218
SWIDTH 500 0
DWIDTH 16 0
BBX 13 24 0 2
BITMAP
01C0
03E0
0000
0000
1F00
0000
0000
E038
0000
0000
E038
C030
0000
E038
E038
0000
4030
E038
0000
0000
E038
0000
0000
3FE0
ENDCHAR
STARTCHAR Ucircumflex
ENCODING 219
SWIDTH 500 0
DWIDTH 16 0
BBX 13 24 0 2
BITMAP
0300
0700
0000
0000
1FC0
0000
0000
E038
0000
0000
E038
C030
0000
E038
E038
0000
4030
E038
0000
0000
E038
0000
0000
3FE0
ENDCHAR
STARTCHAR Udieresis
ENCODING 220
SWIDTH 500 0
DWIDTH 16 0
BBX 13 24 0 2
BITMAP
3040
38E0
0000
0000
0000
0000
0000
E038
0000
0000
E038
C030
0000
E038
E038
0000
4030
E038
0000
0000
E038
0000
0000
3FE0
ENDCHAR
STARTCHAR Yacute
ENCODING 221
SWIDTH 500 0
DWIDTH 16 0
BBX 13 24 0 2
BITMAP
3040
38E0
0000
0000
0000
0000
0000
E038
0000
0000
38E0
30C0
0000
1F80
1F80
0000
0300
0700
0000
0000
0700
0000
0000
0700
ENDCHAR
STARTCHAR Thorn
ENCODING 222
SWIDTH 500 0
DWIDTH 16 0
BBX 13 27 0 -5
BITMAP
FC00
0000
0000
E700
0000
0000
E700
C200
0000
E700
E700
0000
5F00
FFF8
0000
0000
0700
0000
0000
07E0
0000
0000
0700
0200
0000
07F8
07F8
ENDCHAR
STARTCHAR germandbls
ENCODING 223
SWIDTH 500 0
DWIDTH 16 0
BBX 13 24 0 -2
BITMAP
1FC0
0000
0000
38E0
0000
0000
E0E0
C0C0
0000
FF80
FF80
0000
4040
E0E0
0000
0000
FC38
0000
0000
E7E0
0000
0000
E000
C000
ENDCHAR
STARTCHAR agrave
ENCODING 224
SWIDTH 500 0
DWIDTH 16 0
BBX 13 20 0 2
BITMAP
1F00
0000
0000
03E0
0000
0000
3FE0
0780
0000
0038
0038
0000
0780
3FF8
0000
0000
E0F8
0000
0000
3FF8
ENDCHAR
STARTCHAR aacute
ENCODING 225
SWIDTH 500 0
DWIDTH 16 0
BBX 13 20 0 2
BITMAP
07C0
0000
0000
3C00
0000
0000
3FE0
0780
0000
0038
0038
0000
0780
3FF8
0000
0000
E0F8
0000
0000
3FF8
ENDCHAR
STARTCHAR acircumflex
ENCODING 226
SWIDTH 500 0
DWIDTH 16 0
BBX 13 24 0 2
BITMAP
0F00
1FC0
0000
0000
38E0
0000
0000
0000
0000
0000
3FE0
0780
0000
0038
0038
0000
0780
3FF8
0000
0000
E0F8
0000
0000
3FF8
ENDCHAR
STARTCHAR atilde
ENCODING 227
SWIDTH 500 0
DWIDTH 16 0
BBX 13 24 0 2
BITMAP
0E30
1F38
0000
0000
3BE0
0000
0000
0000
0000
0000
3FE0
0780
0000
0038
0038
0000
0780
3FF8
0000
0000
E0F8
0000
0000
3FF8
ENDCHAR
STARTCHAR adieresis
ENCODING 228
SWIDTH 500 0
DWIDTH 16 0
BBX 13 20 0 2
BITMAP
38E0
0000
0000
0000
0000
0000
3FE0
0780
0000
0038
0038
0000
0780
3FF8
0000
0000
E0F8
0000
0000
3FF8
ENDCHAR
STARTCHAR aring
ENCODING 229
SWIDTH 500 0
DWIDTH 16 0
BBX 13 24 0 2
BITMAP
0F00
1FC0
0000
0000
38E0
0000
0000
1FC0
0000
0000
3FE0
0780
0000
0038
0038
0000
0780
3FF8
0000
0000
E0F8
0000
0000
3FF8
ENDCHAR
STARTCHAR ae
ENCODING 230
SWIDTH 500 0
DWIDTH 16 0
BBX 13 14 0 2
BITMAP
3FE0
0780
0000
0738
0738
0000
0780
3FF8
0000
0000
E700
0000
0000
3FF8
ENDCHAR
STARTCHAR ccedilla
ENCODING 231
SWIDTH 500 0
DWIDTH 16 0
BBX 13 21 0 -5
BITMAP
3FE0
0780
0000
E038
E038
0000
4000
E000
0000
0000
E038
0000
0000
3FE0
0000
0000
03C0
0180
0000
1F80
1F80
ENDCHAR
STARTCHAR egrave
ENCODING 232
SWIDTH 500 0
DWIDTH 16 0
BBX 13 20 0 2
BITMAP
1F00
0000
0000
03E0
0000
0000
3FE0
0780
0000
E038
E038
0000
5F00
FFF8
0000
0000
E000
0000
0000
3FE0
ENDCHAR
STARTCHAR eacute
ENCODING 233
SWIDTH 500 0
DWIDTH 16 0
BBX 13 20 0 2
BITMAP
07C0
0000
0000
3C00
0000
0000
3FE0
0780
0000
E038
E038
0000
5F00
FFF8
0000
0000
E000
0000
0000
3FE0
ENDCHAR
STARTCHAR ecircumflex
ENCODING 234
SWIDTH 500 0
DWIDTH 16 0
BBX 13 24 0 2
BITMAP
0F00
1FC0
0000
0000
38E0
0000
0000
0000
0000
0000
3FE0
0780
0000
E038
E038
0000
5F00
FFF8
0000
0000
E000
0000
0000
3FE0
ENDCHAR
STARTCHAR edieresis
ENCODING 235
SWIDTH 500 0
DWIDTH 16 0
BBX 13 20 0 2
BITMAP
38E0
0000
0000
0000
0000
0000
3FE0
0780
0000
E038
E038
0000
5F00
FFF8
0000
0000
E000
0000
0000
3FE0
ENDCHAR
STARTCHAR igrave
ENCODING 236
SWIDTH 500 0
DWIDTH 16 0
BBX 9 20 2 2
BITMAP
F000
0000
0000
1F00
0000
0000
7C00
3800
0000
1C00
1C00
0000
0C00
1C00
0000
0000
1C00
0000
0000
FF80
ENDCHAR
STARTCHAR iacute
ENCODING 237
SWIDTH 500 0
DWIDTH 16 0
BBX 9 20 2 2
BITMAP
1F00
0000
0000
F000
0000
0000
7C00
3800
0000
1C00
1C00
0000
0C00
1C00
0000
0000
1C00
0000
0000
FF80
ENDCHAR
STARTCHAR icircumflex
ENCODING 238
SWIDTH 500 0
DWIDTH 16 0
BBX 9 24 2 2
BITMAP
3C00
7F00
0000
0000
E380
0000
0000
0000
0000
0000
7C00
3800
0000
1C00
1C00
0000
0C00
1C00
0000
0000
1C00
0000
0000
FF80
ENDCHAR
STARTCHAR idieresis
ENCODING 239
SWIDTH 500 0
DWIDTH 16 0
BBX 9 20 2 2
BITMAP
E380
0000
0000
0000
0000
0000
7C00
3800
0000
1C00
1C00
0000
0C00
1C00
0000
0000
1C00
0000
0000
FF80
ENDCHAR
STARTCHAR eth
ENCODING 240
SWIDTH 500 0
DWIDTH 16 0
BBX 13 27 0 -5
BITMAP
FF00
0000
0000
E000
0000
0000
FC00
7800
0000
E000
E000
0000
41C0
E3E0
0000
0000
0738
0000
0000
0738
0000
0000
0738
0230
0000
01E0
01E0
ENDCHAR
STARTCHAR ntilde
ENCODING 241
SWIDTH 500 0
DWIDTH 16 0
BBX 13 24 0 2
BITMAP
3840
3CE0
0000
0000
E7C0
0000
0000
0000
0000
0000
FFE0
0F00
0000
F838
F838
0000
4030
E038
0000
0000
E038
0000
0000
E038
ENDCHAR
STARTCHAR ograve
ENCODING 242
SWIDTH 500 0
DWIDTH 16 0
BBX 13 20 0 2
BITMAP
1F00
0000
0000
03E0
0000
0000
3FE0
0780
0000
E038
E038
0000
4030
E038
0000
0000
E038
0000
0000
3FE0
ENDCHAR
STARTCHAR oacute
ENCODING 243
SWIDTH 500 0
DWIDTH 16 0
BBX 13 20 0 2
BITMAP
07C0
0000
0000
3C00
0000
0000
3FE0
0780
0000
E038
E038
0000
4030
E038
0000
0000
E038
0000
0000
3FE0
ENDCHAR
STARTCHAR ocircumflex
ENCODING 244
SWIDTH 500 0
DWIDTH 16 0
BBX 13 24 0 2
BITMAP
0F00
1FC0
0000
0000
38E0
0000
0000
0000
0000
0000
3FE0
0780
0000
E038
E038
0000
4030
E038
0000
0000
E038
0000
0000
3FE0
ENDCHAR
STARTCHAR otilde
ENCODING 245
SWIDTH 500 0
DWIDTH 16 0
BBX 13 24 0 2
BITMAP
3840
3CE0
0000
0000
E7C0
0000
0000
0000
0000
0000
3FE0
0780
0000
E038
E038
0000
4030
E038
0000
0000
E038
0000
0000
3FE0
ENDCHAR
STARTCHAR odieresis
ENCODING 246
SWIDTH 500 0
DWIDTH 16 0
BBX 13 20 0 2
BITMAP
38E0
0000
0000
0000
0000
0000
3FE0
0780
0000
E038
E038
0000
4030
E038
0000
0000
E038
0000
0000
3FE0
ENDCHAR
STARTCHAR divide
ENCODING 247
SWIDTH 500 0
DWIDTH 16 0
BBX 13 14 0 2
BITMAP
3FE0
0780
0000
E738
E738
0000
43F0
E7F8
0000
0000
E700
0000
0000
3FF8
ENDCHAR
STARTCHAR oslash
ENCODING 248
SWIDTH 500 0
DWIDTH 16 0
BBX 13 21 0 -2
BITMAP
0038
0000
0000
3FE0
0780
0000
E1F8
E1F8
0000
4330
E738
0000
0000
FC38
0000
0000
3FE0
0000
0000
E000
C000
ENDCHAR
STARTCHAR ugrave
ENCODING 249
SWIDTH 500 0
DWIDTH 16 0
BBX 13 20 0 2
BITMAP
3C00
0000
0000
07C0
0000
0000
E0E0
C0C0
0000
E0E0
E0E0
0000
4040
E0E0
0000
0000
E0E0
0000
0000
3FF8
ENDCHAR
STARTCHAR uacute
ENCODING 250
SWIDTH 500 0
DWIDTH 16 0
BBX 13 20 0 2
BITMAP
07C0
0000
0000
3C00
0000
0000
E0E0
C0C0
0000
E0E0
E0E0
0000
4040
E0E0
0000
0000
E0E0
0000
0000
3FF8
ENDCHAR
STARTCHAR ucircumflex
ENCODING 251
SWIDTH 500 0
DWIDTH 16 0
BBX 13 24 0 2
BITMAP
0F00
1FC0
0000
0000
38E0
0000
0000
0000
0000
0000
E0E0
C0C0
0000
E0E0
E0E0
0000
4040
E0E0
0000
0000
E0E0
0000
0000
3FF8
ENDCHAR
STARTCHAR udieresis
ENCODING 252
SWIDTH 500 0
DWIDTH 16 0
BBX 13 20 0 2
BITMAP
38E0
0000
0000
0000
0000
0000
E0E0
C0C0
0000
E0E0
E0E0
0000
4040
E0E0
0000
0000
E0E0
0000
0000
3FF8
ENDCHAR
STARTCHAR yacute
ENCODING 253
SWIDTH 500 0
DWIDTH 16 0
BBX 11 27 0 -5
BITMAP
38E0
0000
0000
0000
0000
0000
E0E0
C0C0
0000
E0E0
E0E0
0000
41C0
E3E0
0000
0000
3FE0
0000
0000
00E0
0000
0000
E0E0
C0C0
0000
3F80
3F80
ENDCHAR
STARTCHAR thorn
ENCODING 254
SWIDTH 500 0
DWIDTH 16 0
BBX 13 27 0 -5
BITMAP
FF00
0000
0000
E000
0000
0000
FC00
7800
0000
E000
E000
0000
43F0
E7F8
0000
0000
0700
0000
0000
07E0
0000
0000
0700
0200
0000
07F8
07F8
ENDCHAR
STARTCHAR ydieresis
ENCODING 255
SWIDTH 500 0
DWIDTH 16 0
BBX 13 20 0 2
BITMAP
FFF8
0000
0000
E038
0000
0000
E038
C030
0000
E038
E038
0000
4030
E038
0000
0000
E038
0000
0000
FFF8
ENDCHAR
STARTCHAR NameMe.320
ENCODING 1025
SWIDTH 500 0
DWIDTH 16 0
BBX 13 24 0 2
BITMAP
3040
38E0
0000
0000
0000
0000
0000
FFF8
0000
0000
E000
C000
0000
FF80
FF80
0000
4000
E000
0000
0000
E000
0000
0000
FFF8
ENDCHAR
STARTCHAR afii10034
ENCODING 1040
SWIDTH 500 0
DWIDTH 16 0
BBX 13 20 0 2
BITMAP
07F8
0000
0000
1C38
0000
0000
3838
3030
0000
E038
E038
0000
5F80
FFF8
0000
0000
E038
0000
0000
E038
ENDCHAR
STARTCHAR NameMe.257
ENCODING 1041
SWIDTH 500 0
DWIDTH 16 0
BBX 13 20 0 2
BITMAP
FFF8
0000
0000
E000
0000
0000
E000
C000
0000
FFE0
FFE0
0000
4030
E038
0000
0000
E038
0000
0000
FFE0
ENDCHAR
STARTCHAR NameMe.258
ENCODING 1042
SWIDTH 500 0
DWIDTH 16 0
BBX 13 20 0 2
BITMAP
FFC0
0000
0000
E0E0
0000
0000
E0E0
C0C0
0000
FFE0
FFE0
0000
4030
E038
0000
0000
E038
0000
0000
FFE0
ENDCHAR
STARTCHAR NameMe.259
ENCODING 1043
SWIDTH 500 0
DWIDTH 16 0
BBX 13 20 0 2
BITMAP
FFF8
0000
0000
E000
0000
0000
E000
C000
0000
E000
E000
0000
4000
E000
0000
0000
E000
0000
0000
E000
ENDCHAR
STARTCHAR NameMe.260
ENCODING 1044
SWIDTH 500 0
DWIDTH 16 0
BBX 13 24 0 -2
BITMAP
1FE0
0000
0000
38E0
0000
0000
38E0
30C0
0000
38E0
38E0
0000
3040
38E0
0000
0000
38E0
0000
0000
FFF8
0000
0000
E038
C030
ENDCHAR
STARTCHAR NameMe.261
ENCODING 1045
SWIDTH 500 0
DWIDTH 16 0
BBX 13 20 0 2
BITMAP
FFF8
0000
0000
E000
0000
0000
E000
C000
0000
FFF8
FFF8
0000
4000
E000
0000
0000
E000
0000
0000
FFF8
ENDCHAR
STARTCHAR NameMe.262
ENCODING 1046
SWIDTH 500 0
DWIDTH 16 0
BBX 13 20 0 2
BITMAP
E738
0000
0000
E738
0000
0000
3FE0
0780
0000
1F80
1F80
0000
0F00
3FE0
0000
0000
E738
0000
0000
E738
ENDCHAR
STARTCHAR NameMe.263
ENCODING 1047
SWIDTH 500 0
DWIDTH 16 0
BBX 13 20 0 2
BITMAP
3FE0
0000
0000
E038
0000
0000
0038
0030
0000
07E0
07E0
0000
0030
0038
0000
0000
E038
0000
0000
3FE0
ENDCHAR
STARTCHAR NameMe.264
ENCODING 1048
SWIDTH 500 0
DWIDTH 16 0
BBX 13 20 0 2
BITMAP
E038
0000
0000
E0F8
0000
0000
E3F8
C0F0
0000
E738
E738
0000
7830
FC38
0000
0000
F838
0000
0000
E038
ENDCHAR
STARTCHAR NameMe.265
ENCODING 1049
SWIDTH 500 0
DWIDTH 16 0
BBX 13 24 0 2
BITMAP
0380
07C0
0000
0000
E738
0000
0000
E0F8
0000
0000
E3F8
C0F0
0000
E738
E738
0000
7830
FC38
0000
0000
F838
0000
0000
E038
ENDCHAR
STARTCHAR NameMe.266
ENCODING 1050
SWIDTH 500 0
DWIDTH 16 0
BBX 13 20 0 2
BITMAP
E038
0000
0000
E038
0000
0000
E3E0
C1C0
0000
FF00
FF00
0000
41C0
E3E0
0000
0000
E038
0000
0000
E038
ENDCHAR
STARTCHAR NameMe.267
ENCODING 1051
SWIDTH 500 0
DWIDTH 16 0
BBX 13 20 0 2
BITMAP
07F8
0000
0000
1C38
0000
0000
3838
3030
0000
E038
E038
0000
4030
E038
0000
0000
E038
0000
0000
E038
ENDCHAR
STARTCHAR NameMe.268
ENCODING 1052
SWIDTH 500 0
DWIDTH 16 0
BBX 13 20 0 2
BITMAP
E038
0000
0000
F8F8
0000
0000
FFF8
0F90
0000
E738
E738
0000
4330
E738
0000
0000
E038
0000
0000
E038
ENDCHAR
STARTCHAR NameMe.269
ENCODING 1053
SWIDTH 500 0
DWIDTH 16 0
BBX 13 20 0 2
BITMAP
E038
0000
0000
E038
0000
0000
E038
C030
0000
E038
E038
0000
5F80
FFF8
0000
0000
E038
0000
0000
E038
ENDCHAR
STARTCHAR NameMe.270
ENCODING 1054
SWIDTH 500 0
DWIDTH 16 0
BBX 13 20 0 2
BITMAP
3FE0
0000
0000
E038
0000
0000
E038
C030
0000
E038
E038
0000
4030
E038
0000
0000
E038
0000
0000
3FE0
ENDCHAR
STARTCHAR NameMe.271
ENCODING 1055
SWIDTH 500 0
DWIDTH 16 0
BBX 13 20 0 2
BITMAP
FFF8
0000
0000
E038
0000
0000
E038
C030
0000
E038
E038
0000
4030
E038
0000
0000
E038
0000
0000
E038
ENDCHAR
STARTCHAR NameMe.272
ENCODING 1056
SWIDTH 500 0
DWIDTH 16 0
BBX 13 20 0 2
BITMAP
FFE0
0000
0000
E038
0000
0000
E038
C030
0000
E038
E038
0000
1F00
FFE0
0000
0000
E000
0000
0000
E000
ENDCHAR
STARTCHAR NameMe.273
ENCODING 1057
SWIDTH 500 0
DWIDTH 16 0
BBX 13 20 0 2
BITMAP
3FF8
0000
0000
E000
0000
0000
E000
C000
0000
E000
E000
0000
4000
E000
0000
0000
E000
0000
0000
3FF8
ENDCHAR
STARTCHAR NameMe.274
ENCODING 1058
SWIDTH 500 0
DWIDTH 16 0
BBX 13 20 0 2
BITMAP
FFF8
0000
0000
E738
0000
0000
0700
0200
0000
0700
0700
0000
0300
0700
0000
0000
0700
0000
0000
0700
ENDCHAR
STARTCHAR NameMe.275
ENCODING 1059
SWIDTH 500 0
DWIDTH 16 0
BBX 13 20 0 2
BITMAP
E038
0000
0000
E038
0000
0000
E038
C030
0000
3FF8
3FF8
0000
0030
0038
0000
0000
E038
0000
0000
3FE0
ENDCHAR
STARTCHAR NameMe.276
ENCODING 1060
SWIDTH 500 0
DWIDTH 16 0
BBX 13 20 0 2
BITMAP
0700
0000
0000
3FE0
0000
0000
E738
C230
0000
E738
E738
0000
4330
E738
0000
0000
3FE0
0000
0000
0700
ENDCHAR
STARTCHAR NameMe.277
ENCODING 1061
SWIDTH 500 0
DWIDTH 16 0
BBX 13 20 0 2
BITMAP
E038
0000
0000
E038
0000
0000
1FC0
0F00
0000
0700
0700
0000
0F00
1FC0
0000
0000
E038
0000
0000
E038
ENDCHAR
STARTCHAR NameMe.278
ENCODING 1062
SWIDTH 500 0
DWIDTH 16 0
BBX 13 24 0 -2
BITMAP
E0E0
0000
0000
E0E0
0000
0000
E0E0
C0C0
0000
E0E0
E0E0
0000
4040
E0E0
0000
0000
E0E0
0000
0000
FFF8
0000
0000
0038
0030
ENDCHAR
STARTCHAR NameMe.279
ENCODING 1063
SWIDTH 500 0
DWIDTH 16 0
BBX 13 20 0 2
BITMAP
E038
0000
0000
E038
0000
0000
E038
C030
0000
FFF8
FFF8
0000
0030
0038
0000
0000
0038
0000
0000
0038
ENDCHAR
STARTCHAR NameMe.280
ENCODING 1064
SWIDTH 500 0
DWIDTH 16 0
BBX 13 20 0 2
BITMAP
E738
0000
0000
E738
0000
0000
E738
C230
0000
E738
E738
0000
4330
E738
0000
0000
E738
0000
0000
FFF8
ENDCHAR
STARTCHAR NameMe.281
ENCODING 1065
SWIDTH 500 0
DWIDTH 16 0
BBX 13 24 0 -2
BITMAP
E738
0000
0000
E738
0000
0000
E738
C230
0000
E738
E738
0000
4330
E738
0000
0000
E738
0000
0000
FFF8
0000
0000
0038
0030
ENDCHAR
STARTCHAR NameMe.282
ENCODING 1066
SWIDTH 500 0
DWIDTH 16 0
BBX 13 20 0 2
BITMAP
F800
0000
0000
F800
0000
0000
3800
1000
0000
3FE0
3FE0
0000
1830
3838
0000
0000
3838
0000
0000
3FE0
ENDCHAR
STARTCHAR NameMe.283
ENCODING 1067
SWIDTH 500 0
DWIDTH 16 0
BBX 13 20 0 2
BITMAP
E038
0000
0000
E038
0000
0000
E038
C030
0000
FF38
FF38
0000
40F0
E3F8
0000
0000
E3F8
0000
0000
FF38
ENDCHAR
STARTCHAR NameMe.284
ENCODING 1068
SWIDTH 500 0
DWIDTH 16 0
BBX 13 20 0 2
BITMAP
E000
0000
0000
E000
0000
0000
E000
C000
0000
FFE0
FFE0
0000
4030
E038
0000
0000
E038
0000
0000
FFE0
ENDCHAR
STARTCHAR NameMe.285
ENCODING 1069
SWIDTH 500 0
DWIDTH 16 0
BBX 13 20 0 2
BITMAP
FFE0
0000
0000
0038
0000
0000
0038
0030
0000
1FF8
1FF8
0000
0030
0038
0000
0000
0038
0000
0000
FFE0
ENDCHAR
STARTCHAR NameMe.286
ENCODING 1070
SWIDTH 500 0
DWIDTH 16 0
BBX 13 20 0 2
BITMAP
E7E0
0000
0000
FC38
0000
0000
FC38
7830
0000
FC38
FC38
0000
7830
FC38
0000
0000
FC38
0000
0000
E7E0
ENDCHAR
STARTCHAR NameMe.287
ENCODING 1071
SWIDTH 500 0
DWIDTH 16 0
BBX 13 20 0 2
BITMAP
3FF8
0000
0000
E038
0000
0000
E038
C030
0000
3FF8
3FF8
0000
0C30
1C38
0000
0000
3838
0000
0000
E038
ENDCHAR
STARTCHAR NameMe.288
ENCODING 1072
SWIDTH 500 0
DWIDTH 16 0
BBX 13 14 0 2
BITMAP
3FC0
1F80
0000
00E0
00E0
0000
0F00
3FE0
0000
0000
E0E0
0000
0000
3FF8
ENDCHAR
STARTCHAR NameMe.289
ENCODING 1073
SWIDTH 500 0
DWIDTH 16 0
BBX 13 20 0 2
BITMAP
3FF8
0000
0000
1C00
0000
0000
07C0
0380
0000
3FE0
3FE0
0000
4030
E038
0000
0000
E038
0000
0000
3FE0
ENDCHAR
STARTCHAR NameMe.290
ENCODING 1074
SWIDTH 500 0
DWIDTH 16 0
BBX 13 20 0 2
BITMAP
3F00
0000
0000
E3C0
0000
0000
E700
C200
0000
FFE0
FFE0
0000
4030
E038
0000
0000
E038
0000
0000
3FE0
ENDCHAR
STARTCHAR NameMe.291
ENCODING 1075
SWIDTH 500 0
DWIDTH 16 0
BBX 13 14 0 2
BITMAP
3FE0
0780
0000
0038
0038
0000
0F00
3FE0
0000
0000
E000
0000
0000
3FF8
ENDCHAR
STARTCHAR NameMe.292
ENCODING 1076
SWIDTH 500 0
DWIDTH 16 0
BBX 13 20 0 2
BITMAP
3FE0
0000
0000
E038
0000
0000
0038
0030
0000
3FF8
3FF8
0000
4030
E038
0000
0000
E038
0000
0000
3FE0
ENDCHAR
STARTCHAR NameMe.293
ENCODING 1077
SWIDTH 500 0
DWIDTH 16 0
BBX 13 14 0 2
BITMAP
3FE0
0780
0000
E038
E038
0000
5F80
FFF8
0000
0000
E000
0000
0000
3FE0
ENDCHAR
STARTCHAR NameMe.294
ENCODING 1078
SWIDTH 500 0
DWIDTH 16 0
BBX 13 14 0 2
BITMAP
E738
C230
0000
3FE0
3FE0
0000
0F00
1FC0
0000
0000
3FE0
0000
0000
E738
ENDCHAR
STARTCHAR NameMe.295
ENCODING 1079
SWIDTH 500 0
DWIDTH 16 0
BBX 13 14 0 2
BITMAP
3FE0
0780
0000
E038
E038
0000
03E0
07E0
0000
0000
E038
0000
0000
3FE0
ENDCHAR
STARTCHAR NameMe.296
ENCODING 1080
SWIDTH 500 0
DWIDTH 16 0
BBX 13 14 0 2
BITMAP
E0E0
C0C0
0000
E0E0
E0E0
0000
4040
E0E0
0000
0000
E3E0
0000
0000
3FF8
ENDCHAR
STARTCHAR NameMe.297
ENCODING 1081
SWIDTH 500 0
DWIDTH 16 0
BBX 13 17 0 2
BITMAP
0700
0000
0000
E0E0
C0C0
0000
E0E0
E0E0
0000
4040
E0E0
0000
0000
E3E0
0000
0000
3FF8
ENDCHAR
STARTCHAR NameMe.298
ENCODING 1082
SWIDTH 500 0
DWIDTH 16 0
BBX 13 14 0 2
BITMAP
E038
C030
0000
E1E0
E1E0
0000
7E00
FF00
0000
0000
E3E0
0000
0000
E038
ENDCHAR
STARTCHAR NameMe.299
ENCODING 1083
SWIDTH 500 0
DWIDTH 16 0
BBX 13 14 0 2
BITMAP
07F8
03F0
0000
1C38
1C38
0000
0C30
1C38
0000
0000
1C38
0000
0000
F838
ENDCHAR
STARTCHAR NameMe.300
ENCODING 1084
SWIDTH 500 0
DWIDTH 16 0
BBX 13 14 0 2
BITMAP
E038
C030
0000
F8F8
F8F8
0000
5F80
FFF8
0000
0000
E738
0000
0000
E038
ENDCHAR
STARTCHAR NameMe.301
ENCODING 1085
SWIDTH 500 0
DWIDTH 16 0
BBX 13 14 0 2
BITMAP
E038
C030
0000
E038
E038
0000
5F80
FFF8
0000
0000
E038
0000
0000
E038
ENDCHAR
STARTCHAR NameMe.302
ENCODING 1086
SWIDTH 500 0
DWIDTH 16 0
BBX 13 14 0 2
BITMAP
3FE0
0780
0000
E038
E038
0000
4030
E038
0000
0000
E038
0000
0000
3FE0
ENDCHAR
STARTCHAR NameMe.303
ENCODING 1087
SWIDTH 500 0
DWIDTH 16 0
BBX 13 14 0 2
BITMAP
FFC0
1E00
0000
F8E0
F8E0
0000
4040
E0E0
0000
0000
E0E0
0000
0000
E0F8
ENDCHAR
STARTCHAR NameMe.304
ENCODING 1088
SWIDTH 500 0
DWIDTH 16 0
BBX 13 18 0 -2
BITMAP
FFE0
0F00
0000
E038
E038
0000
4030
E038
0000
0000
FFE0
0000
0000
E000
0000
0000
E000
C000
ENDCHAR
STARTCHAR NameMe.305
ENCODING 1089
SWIDTH 500 0
DWIDTH 16 0
BBX 13 14 0 2
BITMAP
3FE0
0780
0000
E038
E038
0000
4000
E000
0000
0000
E038
0000
0000
3FE0
ENDCHAR
STARTCHAR NameMe.306
ENCODING 1090
SWIDTH 500 0
DWIDTH 16 0
BBX 13 14 0 2
BITMAP
FFF8
0F90
0000
0700
0700
0000
0300
0700
0000
0000
0700
0000
0000
0700
ENDCHAR
STARTCHAR NameMe.307
ENCODING 1091
SWIDTH 500 0
DWIDTH 16 0
BBX 13 18 0 -2
BITMAP
E038
C030
0000
E038
E038
0000
4030
E038
0000
0000
3FF8
0000
0000
0038
0000
0000
FFE0
0F00
ENDCHAR
STARTCHAR NameMe.308
ENCODING 1092
SWIDTH 500 0
DWIDTH 16 0
BBX 13 14 0 2
BITMAP
0700
0200
0000
3FE0
3FE0
0000
4330
E738
0000
0000
3FE0
0000
0000
0700
ENDCHAR
STARTCHAR NameMe.309
ENCODING 1093
SWIDTH 500 0
DWIDTH 16 0
BBX 13 14 0 2
BITMAP
E038
C030
0000
1F80
1F80
0000
0300
0700
0000
0000
1FC0
0000
0000
E038
ENDCHAR
STARTCHAR NameMe.310
ENCODING 1094
SWIDTH 500 0
DWIDTH 16 0
BBX 13 18 0 -2
BITMAP
E0E0
C0C0
0000
E0E0
E0E0
0000
4040
E0E0
0000
0000
E3E0
0000
0000
3F38
0000
0000
0038
0030
ENDCHAR
STARTCHAR NameMe.311
ENCODING 1095
SWIDTH 500 0
DWIDTH 16 0
BBX 13 14 0 2
BITMAP
E038
C030
0000
E038
E038
0000
5F80
FFF8
0000
0000
0038
0000
0000
0038
ENDCHAR
STARTCHAR NameMe.312
ENCODING 1096
SWIDTH 500 0
DWIDTH 16 0
BBX 13 14 0 2
BITMAP
E738
C230
0000
E738
E738
0000
4330
E738
0000
0000
E738
0000
0000
FFF8
ENDCHAR
STARTCHAR NameMe.313
ENCODING 1097
SWIDTH 500 0
DWIDTH 16 0
BBX 13 18 0 -2
BITMAP
E738
C230
0000
E738
E738
0000
4330
E738
0000
0000
E738
0000
0000
FFF8
0000
0000
0038
0030
ENDCHAR
STARTCHAR NameMe.314
ENCODING 1098
SWIDTH 500 0
DWIDTH 16 0
BBX 13 14 0 2
BITMAP
FC00
7800
0000
1C00
1C00
0000
0FC0
1FE0
0000
0000
1C38
0000
0000
1FE0
ENDCHAR
STARTCHAR NameMe.315
ENCODING 1099
SWIDTH 500 0
DWIDTH 16 0
BBX 13 14 0 2
BITMAP
E038
C030
0000
E038
E038
0000
7E30
FF38
0000
0000
E3F8
0000
0000
FF38
ENDCHAR
STARTCHAR NameMe.316
ENCODING 1100
SWIDTH 500 0
DWIDTH 16 0
BBX 13 14 0 2
BITMAP
E000
C000
0000
E000
E000
0000
1F00
FFE0
0000
0000
E038
0000
0000
FFE0
ENDCHAR
STARTCHAR NameMe.317
ENCODING 1101
SWIDTH 500 0
DWIDTH 16 0
BBX 13 14 0 2
BITMAP
3FE0
0780
0000
E038
E038
0000
03F0
07F8
0000
0000
E038
0000
0000
3FE0
ENDCHAR
STARTCHAR NameMe.318
ENCODING 1102
SWIDTH 500 0
DWIDTH 16 0
BBX 13 14 0 2
BITMAP
E7E0
C7E0
0000
FC38
FC38
0000
7830
FC38
0000
0000
FC38
0000
0000
E7E0
ENDCHAR
STARTCHAR NameMe.319
ENCODING 1103
SWIDTH 500 0
DWIDTH 16 0
BBX 13 14 0 2
BITMAP
3FF8
07C0
0000
E038
E038
0000
0790
3FF8
0000
0000
1C38
0000
0000
F838
ENDCHAR
STARTCHAR NameMe.321
ENCODING 1105
SWIDTH 500 0
DWIDTH 16 0
BBX 13 20 0 2
BITMAP
38E0
0000
0000
0000
0000
0000
3FE0
0780
0000
E038
E038
0000
5F00
FFF8
0000
0000
E000
0000
0000
3FE0
ENDCHAR
STARTCHAR .notdef
ENCODING -1
SWIDTH 500 0
DWIDTH 16 0
BBX 8 21 1 0
BITMAP
FF
81
81
81
81
81
81
81
81
81
81
81
81
81
81
81
81
81
81
81
FF
ENDCHAR
ENDFONT
